<svg width="64" height="67" viewBox="0 0 64 67" fill="none" xmlns="http://www.w3.org/2000/svg">
<path d="M22.0601 47.92C22.0601 49.09 22.92 49.88 24.11 49.88C25.3 49.88 26.16 49.09 26.16 47.92C26.16 46.75 25.3 45.96 24.11 45.96C22.92 45.96 22.0601 46.77 22.0601 47.92Z" fill="#1677FF"/>
<path d="M16.35 46.46V62.89H19.9V46.46H16.35Z" fill="#3E3A39"/>
<path d="M10.11 47.02H5.34003L0 62.89H3.29001L4.19 59.78H9.84003L10.7 62.89H14.91L10.11 47.02ZM4.93002 57.2L7.05002 49.88H7.14001L9.14001 57.2H4.93002Z" fill="#3E3A39"/>
<path d="M22.33 50.8199V62.8899H25.89V50.8199H22.33Z" fill="#3E3A39"/>
<path d="M63.0699 50.8499L63.09 50.8199H59.73L57.6199 58.1599H57.5099L55.0699 50.8199H51.09L55.8799 62.9399L53.8799 66.6299V66.7199H57.0099L63.0699 50.8499Z" fill="#3E3A39"/>
<path d="M34.7401 50.58C33.4301 50.58 32.4201 51.08 31.2701 52.02V50.83H27.7101V66.7299H31.2701V62.79C31.9501 62.97 32.5801 63.06 33.3401 63.06C36.5101 63.06 39.3701 60.72 39.3701 56.55C39.3701 52.81 37.3001 50.58 34.7301 50.58H34.7401ZM32.4901 60.82C32.0801 60.82 31.7001 60.77 31.2701 60.64V54.11C32.0101 53.59 32.6201 53.34 33.3901 53.34C34.7201 53.34 35.7801 54.3999 35.7801 56.6499C35.7801 59.5299 34.2301 60.82 32.4901 60.82Z" fill="#3E3A39"/>
<path d="M50.39 59.88V54.84C50.39 52.09 48.77 50.58 45.91 50.58C44.09 50.58 42.83 50.9 40.53 51.59L41.16 54.36C43.25 53.41 44.18 53.0099 45.15 53.0099C46.32 53.0099 46.84 53.84 46.84 55.13V55.22C42.76 55.99 41.5 56.41 40.72 57.2C40.13 57.79 39.89 58.62 39.89 59.59C39.89 61.91 41.69 63.1499 43.38 63.1499C44.64 63.1499 45.65 62.68 47.03 61.64L47.28 62.8999H50.84L50.41 59.88H50.39ZM46.83 59.97C45.88 60.49 45.34 60.69 44.71 60.69C43.85 60.69 43.31 60.1299 43.31 59.2299C43.31 58.8899 43.38 58.55 43.65 58.28C44.08 57.85 44.91 57.54 46.82 57.09V59.97H46.83Z" fill="#3E3A39"/>
<path d="M45.05 0H17.5301C13.9501 0 11.04 2.93 11.04 6.54V34.29C11.04 37.9 13.9401 40.83 17.5301 40.83H45.05C48.63 40.83 51.5301 37.9 51.5301 34.29V6.54C51.5301 2.93 48.63 0 45.05 0Z" fill="#1677FF"/>
<path d="M44.3799 25.6399C42.7599 25.0899 40.59 24.2599 38.16 23.3699C39.61 20.8199 40.78 17.9199 41.54 14.7599H33.5599V11.8599H43.34V10.2399H33.5599V5.40991H29.5699C28.8699 5.40991 28.87 6.10991 28.87 6.10991V10.2499H18.9799V11.8699H28.87V14.7699H20.71V16.3899H36.54C35.96 18.3999 35.1799 20.2899 34.2599 22.0099C29.1199 20.2999 23.6399 18.9099 20.1999 19.7699C17.9999 20.3199 16.5799 21.2899 15.7499 22.3199C11.9199 27.0099 14.6699 34.1399 22.7499 34.1399C27.5299 34.1399 32.1299 31.4499 35.6899 27.0299C41.0099 29.6099 51.54 34.0399 51.54 34.0399V27.7299C51.54 27.7299 50.2199 27.6199 44.3899 25.6499L44.3799 25.6399ZM21.9799 31.3999C15.6799 31.3999 13.82 26.3999 16.93 23.6599C17.97 22.7299 19.8699 22.2799 20.8799 22.1799C24.6199 21.8099 28.0899 23.2499 32.1699 25.2599C29.2999 29.0399 25.6399 31.3999 21.9799 31.3999Z" fill="white"/>
</svg>
