<svg width="84" height="47" viewBox="0 0 84 47" fill="none" xmlns="http://www.w3.org/2000/svg">
<path fill-rule="evenodd" clip-rule="evenodd" d="M62.6919 31.8723C60.8341 31.8723 59.3478 32.5942 58.4029 33.9531L58.2755 34.1442L58.1481 33.9531C57.2351 32.5942 55.8125 31.8723 54.029 31.8723C52.2454 31.8723 50.9396 32.5305 50.0266 33.7833L49.8992 33.9319L49.1348 32.212H44.8564L46.003 34.7918V46.077H50.1646V38.0723C50.1646 36.3524 51.0564 35.3226 52.5639 35.3226C54.0714 35.3226 54.9314 36.3524 54.9314 38.0723V46.077H59.093V38.0723C59.093 36.3524 59.9848 35.3226 61.4923 35.3226C62.9998 35.3226 63.8597 36.3524 63.8597 38.0723V46.077H68.0213V37.4884C68.0213 34.0699 65.9299 31.8617 62.6919 31.8617V31.8723Z" fill="black"/>
<path fill-rule="evenodd" clip-rule="evenodd" d="M83.8611 37.223C83.0755 33.8257 80.6125 31.8723 77.0985 31.8723C73.0324 31.8723 70.0811 34.9298 70.0811 39.1551C70.0811 43.3804 73.1916 46.4379 77.8204 46.4379C79.5721 46.4379 81.4193 45.8859 82.7994 44.941L80.6337 42.478C80.6337 42.478 80.1454 42.7541 79.3067 43.0089C78.3937 43.2955 77.1622 43.3061 76.2492 43.0407C75.1451 42.6798 74.3913 41.9579 74.0728 40.9174L74.0091 40.7051H83.8505V37.223H83.8611ZM73.9242 37.7113L73.9666 37.5202C74.2851 35.949 75.4635 35.0148 77.1091 35.0148C78.7546 35.0148 79.9012 35.949 80.2197 37.5308L80.2621 37.7219H73.9242V37.7113Z" fill="black"/>
<path fill-rule="evenodd" clip-rule="evenodd" d="M36.1518 31.8723C34.1665 31.8723 32.3086 32.5836 30.9073 33.8682C29.4528 35.2165 28.646 37.0849 28.646 39.1445C28.646 41.2041 29.4528 43.0832 30.9073 44.4208C32.3086 45.7054 34.1665 46.4167 36.1518 46.4167C38.137 46.4167 39.9949 45.7054 41.3962 44.4208C42.8507 43.0726 43.6575 41.2041 43.6575 39.1445C43.6575 37.0849 42.8507 35.2058 41.3962 33.8682C39.9949 32.5836 38.137 31.8723 36.1518 31.8723ZM39.4959 39.1551C39.4959 41.151 38.0839 42.6054 36.1518 42.6054C34.2196 42.6054 32.8076 41.1616 32.8076 39.1551C32.8076 37.1486 34.2196 35.7048 36.1518 35.7048C38.0839 35.7048 39.4959 37.1486 39.4959 39.1445V39.1551Z" fill="black"/>
<path fill-rule="evenodd" clip-rule="evenodd" d="M23.6981 28.7828H19.5365V32.2119H17.5513V35.6728H19.5365V41.5012C19.5365 44.7074 21.0334 46.0769 24.5474 46.0769H26.5433V42.6159L25.3543 42.5947C24.229 42.5947 23.6981 42.0002 23.6981 40.7156V35.6728H26.5964L28.1145 32.2119H23.6981V28.7828Z" fill="black"/>
<path fill-rule="evenodd" clip-rule="evenodd" d="M15.0568 43.0619V32.212H11.4685V34.0062L11.1925 33.7302C10.0034 32.5199 8.40035 31.8617 6.6805 31.8617C4.96066 31.8617 3.28327 32.573 2.04116 33.8576C0.745964 35.2058 0.034668 37.0849 0.034668 39.1445C0.034668 41.2041 0.745964 43.0832 2.04116 44.4315C3.28327 45.716 4.92881 46.4273 6.6805 46.4273C8.4322 46.4273 10.1521 45.6948 11.3835 44.3571L11.5746 44.1448L12.1055 46.077H15.853L15.0356 43.0619H15.0568ZM10.8952 39.3038C10.8103 41.2147 9.39829 42.5948 7.55105 42.5948C5.7038 42.5948 4.20689 41.151 4.20689 39.1445C4.20689 37.138 5.61887 35.6942 7.55105 35.6942C9.48322 35.6942 10.8103 37.0743 10.8952 38.9959V39.2931V39.3038Z" fill="black"/>
<path fill-rule="evenodd" clip-rule="evenodd" d="M54.9526 22.5828H50.2814L47.6167 18.1134C45.8331 19.3449 43.9859 19.9606 42.0643 19.9606C41.99 19.9606 41.9157 19.9606 41.8414 19.9606C39.7712 19.9075 37.9133 19.1219 36.3315 18.039L33.6243 22.5828H28.9531L41.9475 0.776855L46.9585 9.17439C46.9585 9.17439 46.3427 9.70521 45.5889 10.2254C45.0369 10.597 43.7842 11.4038 42.7013 9.85384L41.9475 8.61172L38.3911 14.5781C39.4845 15.3531 40.6948 15.8945 41.9475 15.9158C44.092 15.9689 46.2684 14.5569 48.4447 11.7117H53.307C52.4471 13.1024 51.5553 14.3127 50.6423 15.3531L54.9526 22.5828Z" fill="black"/>
</svg>
