<svg width="135" height="43" viewBox="0 0 135 43" fill="none" xmlns="http://www.w3.org/2000/svg">
<path d="M32.8903 23.6702C31.9903 21.8802 30.4103 20.7402 28.1903 20.2802C28.0203 20.2402 27.8303 20.2202 27.6503 20.2002L27.4103 20.1702C27.2603 20.1502 27.0603 20.1302 26.7103 20.1302H26.5203L22.9303 20.1002L22.9603 16.5302C22.9703 16.0602 22.9603 15.8102 22.9303 15.6302L22.9003 15.3802C22.8803 15.2102 22.8603 15.0102 22.8303 14.8402C22.4003 12.6202 21.2903 11.0202 19.5203 10.0902C18.1603 9.38021 16.9103 9.34021 16.9003 9.34021H16.7003C16.3503 9.34021 16.0903 9.34021 15.7803 9.39021C9.93027 10.1302 9.95027 15.7502 9.95027 15.9902L9.87027 26.4102C9.85027 28.5002 10.4103 30.1602 11.5303 31.3502C12.6803 32.4702 14.3303 33.0502 16.4203 33.0702L26.8903 33.1602C27.4803 33.1602 32.7303 33.0402 33.5303 27.4402C33.5803 27.0802 33.6003 26.7802 33.6003 26.3302C33.6003 26.3102 33.5903 25.0602 32.9003 23.6902" fill="#EC3225"/>
<path d="M36.1002 0.240238L6.62023 0.000237994C3.13023 -0.029762 0.270243 2.78024 0.240243 6.28024L0.000237994 35.7602C-0.029762 39.2502 2.78024 42.1102 6.28024 42.1402L35.7602 42.3802C39.2502 42.4102 42.1102 39.6002 42.1402 36.1102L42.3802 6.63024C42.4102 3.14024 39.6002 0.280238 36.1002 0.250238M36.4302 32.4302C34.5802 35.8402 30.8402 37.0302 29.7302 37.3102C29.0802 37.4702 28.5102 37.5502 27.4702 37.6002H27.4602L14.9102 37.5002C14.9102 37.5002 14.0502 37.4902 13.2002 37.2702C12.6002 37.1202 11.8402 36.8702 11.2202 36.5802C10.4802 36.2402 9.64023 35.7602 8.48023 34.6002L8.29023 34.4102C7.38023 33.4702 6.50023 32.1402 6.07023 31.0302C5.82023 30.3902 5.75023 30.0802 5.60023 29.4802C5.40023 28.6502 5.41024 27.7702 5.41024 27.7002L5.51023 15.3302C5.58023 14.2602 5.67023 13.6902 5.84023 13.0402C6.14023 11.9402 7.38023 8.22024 10.8402 6.42024C12.7902 5.34024 14.7802 4.80024 16.7702 4.82024C19.8402 4.85024 21.8202 6.20024 21.9102 6.26024C27.2902 9.55024 27.4102 14.9602 27.4002 15.7202C28.1902 15.7102 33.5502 15.9002 36.7902 21.3902C36.8102 21.4102 40.0102 26.1902 36.4202 32.4302" fill="#EC3225"/>
<path d="M55.3403 38.4903C53.6703 38.4803 52.1603 38.1603 50.8303 37.5603C49.5003 36.9603 48.3603 36.1403 47.4203 35.1403C46.4903 34.1403 45.7603 32.9503 45.2603 31.6103C44.7603 30.2803 44.5103 28.8603 44.5203 27.4103C44.5303 25.9603 44.8003 24.5503 45.3203 23.2203C45.8403 21.8903 46.5903 20.7203 47.5603 19.7303C48.5203 18.7403 49.6903 17.9503 51.0303 17.3703C52.3703 16.7903 53.8803 16.5003 55.5203 16.5103C57.1603 16.5203 58.6603 16.8403 59.9903 17.4403C61.3203 18.0403 62.4703 18.8603 63.4203 19.8603C64.3703 20.8703 65.1003 22.0503 65.6003 23.3903C66.1003 24.7303 66.3503 26.1403 66.3403 27.5903C66.3303 29.0403 66.0603 30.4503 65.5303 31.7803C65.0103 33.1103 64.2503 34.2803 63.2903 35.2703C62.3303 36.2603 61.1603 37.0503 59.8203 37.6303C58.4803 38.2103 56.9703 38.5003 55.3303 38.4903M55.4803 20.4903C54.6403 20.4903 53.8403 20.6603 53.0903 21.0203C52.3403 21.3803 51.6803 21.8803 51.1203 22.5103C50.5603 23.1403 50.1103 23.8903 49.7703 24.7403C49.4403 25.5903 49.2603 26.5203 49.2503 27.4903C49.2503 28.4903 49.3903 29.4303 49.7003 30.2703C50.0103 31.1203 50.4403 31.8603 50.9903 32.4803C51.5403 33.1003 52.1903 33.6003 52.9303 33.9603C53.6703 34.3203 54.4903 34.5103 55.3503 34.5103C56.2203 34.5103 57.0303 34.3403 57.7803 34.0003C58.5303 33.6503 59.1903 33.1603 59.7503 32.5303C60.3103 31.9003 60.7503 31.1603 61.0803 30.3203C61.4003 29.4803 61.5703 28.5503 61.5803 27.5503C61.5803 26.5803 61.4403 25.6503 61.1303 24.7903C60.8203 23.9303 60.3903 23.1803 59.8403 22.5403C59.2903 21.9103 58.6403 21.4003 57.8903 21.0403C57.1503 20.6803 56.3303 20.4903 55.4703 20.4903" fill="#EC3225"/>
<path d="M79.4303 38.6902C77.7603 38.6802 76.2503 38.3602 74.9203 37.7602C73.5903 37.1602 72.4503 36.3402 71.5103 35.3402C70.5803 34.3402 69.8503 33.1502 69.3503 31.8102C68.8503 30.4802 68.6003 29.0602 68.6103 27.6102C68.6203 26.1602 68.8903 24.7502 69.4103 23.4202C69.9303 22.0902 70.6903 20.9202 71.6503 19.9302C72.6203 18.9402 73.7803 18.1502 75.1203 17.5702C76.4603 16.9902 77.9703 16.7002 79.6103 16.7102C81.2503 16.7202 82.7503 17.0402 84.0803 17.6402C85.4103 18.2402 86.5603 19.0602 87.5103 20.0602C88.4603 21.0702 89.1903 22.2502 89.6903 23.5902C90.1903 24.9302 90.4403 26.3402 90.4303 27.7902C90.4203 29.2402 90.1503 30.6502 89.6303 31.9802C89.1103 33.3102 88.3503 34.4802 87.3903 35.4702C86.4303 36.4602 85.2603 37.2502 83.9203 37.8302C82.5803 38.4102 81.0703 38.7002 79.4303 38.6902ZM79.5803 20.6902C78.7403 20.6902 77.9403 20.8602 77.1903 21.2202C76.4403 21.5802 75.7803 22.0802 75.2203 22.7102C74.6603 23.3402 74.2103 24.0902 73.8703 24.9402C73.5303 25.7902 73.3603 26.7202 73.3503 27.6902C73.3503 28.6902 73.4903 29.6302 73.8003 30.4702C74.1103 31.3102 74.5403 32.0602 75.0903 32.6802C75.6403 33.3002 76.2903 33.8002 77.0403 34.1602C77.7803 34.5202 78.6003 34.7102 79.4603 34.7102C80.3303 34.7102 81.1403 34.5402 81.8903 34.2002C82.6403 33.8502 83.3003 33.3602 83.8603 32.7402C84.4203 32.1102 84.8603 31.3702 85.1903 30.5302C85.5103 29.6902 85.6803 28.7602 85.6903 27.7602C85.6903 26.7902 85.5503 25.8602 85.2403 25.0002C84.9303 24.1402 84.5003 23.3902 83.9503 22.7502C83.4003 22.1202 82.7503 21.6102 82.0103 21.2502C81.2703 20.8902 80.4503 20.7002 79.5903 20.7002" fill="#EC3225"/>
<path d="M101.64 38.8703C100.78 38.8703 99.9103 38.7903 99.0403 38.6503C98.1603 38.5103 97.3003 38.3003 96.4603 38.0403C95.6203 37.7803 94.8103 37.4603 94.0403 37.0903C93.2703 36.7203 92.5903 36.3003 92.0003 35.8403L91.9303 35.7803L93.9103 32.6603L94.0003 32.7203C96.5303 34.5103 99.0803 35.4403 101.59 35.4603C102.9 35.4703 103.96 35.2303 104.72 34.7403C105.48 34.2503 105.85 33.5703 105.86 32.6603C105.86 31.8103 105.46 31.2003 104.63 30.7903C103.77 30.3703 102.38 29.9303 100.5 29.4603C99.1903 29.1303 98.0503 28.7903 97.1203 28.4503C96.1803 28.1103 95.4003 27.7203 94.8203 27.2903C94.2203 26.8603 93.7803 26.3403 93.5103 25.7503C93.2403 25.1603 93.1103 24.4503 93.1203 23.6403C93.1203 22.5603 93.3603 21.5803 93.8003 20.7503C94.2403 19.9203 94.8403 19.2003 95.5903 18.6203C96.3403 18.0503 97.2303 17.6103 98.2503 17.3203C99.2603 17.0303 100.36 16.8903 101.52 16.9003C103.05 16.9103 104.55 17.1703 105.96 17.6603C107.38 18.1503 108.67 18.8303 109.79 19.6703L109.87 19.7303L107.84 22.5703L107.76 22.5103C105.79 21.0103 103.65 20.2503 101.41 20.2303C100.31 20.2303 99.3703 20.4403 98.6003 20.9003C97.8503 21.3503 97.4803 22.0503 97.4703 23.0403C97.4703 23.4503 97.5403 23.8003 97.6903 24.0803C97.8403 24.3603 98.0903 24.6003 98.4303 24.8103C98.7803 25.0203 99.2503 25.2203 99.8303 25.3903C100.41 25.5703 101.14 25.7703 101.99 25.9903C103.43 26.3503 104.68 26.7103 105.72 27.0703C106.77 27.4303 107.64 27.8503 108.33 28.3303C109.02 28.8103 109.53 29.3803 109.86 30.0303C110.18 30.6703 110.34 31.4603 110.33 32.3503C110.33 33.3503 110.11 34.2703 109.69 35.0803C109.28 35.8903 108.69 36.5903 107.94 37.1503C107.19 37.7103 106.27 38.1503 105.21 38.4503C104.14 38.7503 102.95 38.9003 101.66 38.8903" fill="#EC3225"/>
<path d="M119.95 38.9402C119.25 38.9402 118.58 38.8302 117.97 38.6402C117.36 38.4402 116.81 38.1502 116.34 37.7702C115.86 37.3802 115.49 36.8702 115.22 36.2602C114.95 35.6502 114.82 34.8902 114.83 34.0302L114.94 20.9902L112.13 20.9702L112.16 17.3502L114.97 17.3702L115.03 10.4602L119.65 10.5002L119.59 17.4102L124.17 17.4502L124.14 21.0702L119.56 21.0302L119.46 32.6602C119.46 33.3802 119.65 33.9002 120.05 34.2102C120.45 34.5302 120.96 34.7002 121.55 34.7002C122.15 34.7002 122.74 34.6002 123.28 34.4002C123.84 34.1902 124.26 34.0202 124.52 33.8902L124.63 33.8402L125.62 37.5402L125.54 37.5702C124.95 37.8302 124.15 38.1302 123.17 38.4602C122.18 38.7902 121.1 38.9502 119.94 38.9402" fill="#EC3225"/>
<path d="M130.63 11.6302L129.54 11.6202L129.52 14.5102L128.47 14.5002L128.5 11.6102L127.4 11.6002L127.41 10.6902L130.64 10.7202L130.63 11.6302Z" fill="#EC3225"/>
<path d="M133.86 14.5402L133.88 12.5402L133.23 13.9402H132.67L132.05 12.5302L132.03 14.5302L130.99 14.5202L131.02 10.7202L132.16 10.7302L132.96 12.5202L133.8 10.7402L134.93 10.7502L134.9 14.5502L133.86 14.5402Z" fill="#EC3225"/>
</svg>
