<svg width="81" height="87" viewBox="0 0 81 87" fill="none" xmlns="http://www.w3.org/2000/svg">
<path d="M25.28 80.19V80.16C25.28 76.83 27.78 73.91 31.46 73.91C35.14 73.91 37.61 76.79 37.61 80.13V80.16C37.61 81.68 37.09 83.1 36.18 84.22L37.32 85.17C37.49 85.33 37.6 85.5 37.6 85.74C37.6 86.1 37.31 86.41 36.93 86.41C36.72 86.41 36.57 86.32 36.41 86.19L35.24 85.14C34.22 85.93 32.93 86.42 31.44 86.42C27.76 86.42 25.29 83.54 25.29 80.2L25.28 80.19ZM32.14 82.12C32.14 81.74 32.45 81.43 32.81 81.43C33.03 81.43 33.17 81.52 33.33 81.65L35.18 83.34C35.84 82.48 36.2 81.39 36.2 80.18V80.15C36.2 77.4 34.2 75.16 31.43 75.16C28.66 75.16 26.7 77.37 26.7 80.12V80.15C26.7 82.9 28.7 85.14 31.47 85.14C32.54 85.14 33.51 84.81 34.27 84.24L32.44 82.67C32.25 82.51 32.15 82.36 32.15 82.12H32.14Z" fill="black"/>
<path d="M39.63 74.8C39.63 74.42 39.94 74.11 40.3 74.11H44.82C46.31 74.11 47.5 74.56 48.26 75.32C48.85 75.91 49.19 76.75 49.19 77.7V77.73C49.19 79.72 47.84 80.87 45.96 81.24L48.97 85.11C49.11 85.27 49.19 85.42 49.19 85.61C49.19 85.97 48.84 86.28 48.5 86.28C48.22 86.28 48.02 86.12 47.86 85.92L44.46 81.5H40.99V85.59C40.99 85.97 40.68 86.28 40.3 86.28C39.92 86.28 39.63 85.97 39.63 85.59V74.8ZM44.71 80.27C46.52 80.27 47.82 79.34 47.82 77.78V77.75C47.82 76.26 46.68 75.37 44.73 75.37H41V80.27H44.71Z" fill="black"/>
<path d="M39.8701 18.9301C36.5801 18.9301 33.8201 21.6901 33.8201 24.9801V31.0301H39.86C43.15 31.0301 45.91 28.2701 45.91 24.9801C45.91 21.6901 43.1601 18.9301 39.8701 18.9301Z" fill="#ED2E67"/>
<path d="M39.87 0C26.13 0 14.88 11.24 14.88 24.98V49.97H39.86C53.6 49.97 64.85 38.72 64.85 24.98C64.85 11.24 53.61 0 39.87 0ZM39.87 38.61H26.25V24.99C26.25 17.52 32.41 11.37 39.88 11.37C47.35 11.37 53.5 17.52 53.5 24.99C53.5 32.46 47.35 38.62 39.87 38.62V38.61Z" fill="#ED2E67"/>
<path d="M0.909912 58.05C0.909912 57.23 1.55994 56.58 2.37994 56.58H6.12994C10.3399 56.58 13.2499 59.47 13.2499 63.24V63.28C13.2499 67.05 10.3399 69.98 6.12994 69.98H2.37994C1.55994 69.98 0.909912 69.33 0.909912 68.51V58.06V58.05ZM6.13995 67.32C8.54995 67.32 10.1799 65.69 10.1799 63.32V63.28C10.1799 60.91 8.54995 59.24 6.13995 59.24H3.85992V67.32H6.13995Z" fill="black"/>
<path d="M24.42 68.64C24.42 69.44 23.77 70.1 22.97 70.1C22.17 70.1 21.52 69.45 21.52 68.64V68.53C20.85 69.39 19.99 70.18 18.51 70.18C16.31 70.18 15.03 68.73 15.03 66.37V61.07C15.03 60.27 15.68 59.61 16.48 59.61C17.28 59.61 17.93 60.26 17.93 61.07V65.45C17.93 66.83 18.58 67.54 19.69 67.54C20.8 67.54 21.51 66.83 21.51 65.45V61.07C21.51 60.27 22.16 59.61 22.96 59.61C23.76 59.61 24.41 60.26 24.41 61.07V68.65L24.42 68.64Z" fill="black"/>
<path d="M26.51 57.27C26.51 56.43 27.22 55.91 28.14 55.91C29.06 55.91 29.77 56.43 29.77 57.27V57.31C29.77 58.15 29.06 58.69 28.14 58.69C27.22 58.69 26.51 58.15 26.51 57.31V57.27ZM26.68 61.06C26.68 60.26 27.33 59.6 28.13 59.6C28.93 59.6 29.58 60.25 29.58 61.06V68.64C29.58 69.44 28.93 70.1 28.13 70.1C27.33 70.1 26.68 69.45 26.68 68.64V61.06Z" fill="black"/>
<path d="M32.33 67.07V62.21H32.23C31.54 62.21 30.99 61.65 30.99 60.97C30.99 60.29 31.55 59.73 32.23 59.73H32.33V58.45C32.33 57.65 32.98 57 33.78 57C34.58 57 35.23 57.65 35.23 58.45V59.73H36.51C37.2 59.73 37.75 60.29 37.75 60.97C37.75 61.65 37.19 62.21 36.51 62.21H35.23V66.59C35.23 67.26 35.52 67.59 36.17 67.59C36.27 67.59 36.46 67.57 36.51 67.57C37.16 67.57 37.72 68.11 37.72 68.78C37.72 69.3 37.38 69.72 36.97 69.87C36.43 70.08 35.94 70.16 35.3 70.16C33.52 70.16 32.31 69.45 32.31 67.08L32.33 67.07Z" fill="black"/>
<path d="M39.62 57.98C39.62 57.16 40.27 56.51 41.09 56.51H41.4C42.11 56.51 42.53 56.85 42.93 57.37L48.62 64.84V57.93C48.62 57.13 49.27 56.48 50.08 56.48C50.89 56.48 51.53 57.13 51.53 57.93V68.59C51.53 69.41 50.88 70.06 50.06 70.06H49.96C49.25 70.06 48.83 69.72 48.43 69.2L42.53 61.47V68.65C42.53 69.45 41.88 70.11 41.08 70.11C40.28 70.11 39.63 69.46 39.63 68.65V57.99L39.62 57.98Z" fill="#ED2E67"/>
<path d="M53.46 64.91V64.87C53.46 61.92 55.83 59.53 59.03 59.53C62.23 59.53 64.5599 61.88 64.5599 64.83V64.87C64.5599 67.82 62.1899 70.21 58.9899 70.21C55.7899 70.21 53.46 67.86 53.46 64.91ZM61.6899 64.91V64.87C61.6899 63.36 60.5999 62.04 58.9899 62.04C57.3799 62.04 56.33 63.32 56.33 64.84V64.88C56.33 66.39 57.42 67.71 59.03 67.71C60.64 67.71 61.6899 66.43 61.6899 64.92V64.91Z" fill="#ED2E67"/>
<path d="M67.84 68.87L65.33 61.63C65.27 61.46 65.2 61.17 65.2 60.92C65.2 60.25 65.7399 59.6 66.5999 59.6C67.3299 59.6 67.81 60.06 68.02 60.73L69.59 65.94L71.2 60.75C71.41 60.06 71.9499 59.58 72.6899 59.58H72.8599C73.6099 59.58 74.1399 60.06 74.3499 60.75L75.9799 65.96L77.59 60.71C77.78 60.1 78.2199 59.6 78.9899 59.6C79.7899 59.6 80.3499 60.21 80.3499 60.94C80.3499 61.13 80.2899 61.4 80.2499 61.53L77.6699 68.86C77.3599 69.76 76.7699 70.16 76.0599 70.16H75.96C75.25 70.16 74.66 69.76 74.39 68.92L72.7599 63.75L71.1099 68.92C70.8399 69.76 70.2499 70.16 69.5399 70.16H69.4399C68.7299 70.16 68.14 69.76 67.83 68.86L67.84 68.87Z" fill="#ED2E67"/>
</svg>
