<svg width="108" height="53" viewBox="0 0 108 53" fill="none" xmlns="http://www.w3.org/2000/svg">
<path d="M0.589966 47.2374C0.589966 46.7374 0.669966 46.2774 0.839966 45.8674C1.00997 45.4574 1.23997 45.1074 1.54997 44.8274C1.84997 44.5374 2.20997 44.3174 2.62997 44.1674C3.03997 44.0174 3.49997 43.9374 3.98997 43.9374C4.47997 43.9374 4.92997 44.0174 5.34997 44.1674C5.75997 44.3274 6.11997 44.5474 6.42997 44.8274C6.72997 45.1174 6.96997 45.4574 7.13997 45.8674C7.30997 46.2774 7.38997 46.7274 7.38997 47.2374C7.38997 47.7474 7.30997 48.1974 7.13997 48.6074C6.96997 49.0174 6.73997 49.3674 6.42997 49.6474C6.12997 49.9374 5.76997 50.1574 5.34997 50.3074C4.93997 50.4574 4.47997 50.5374 3.98997 50.5374C3.49997 50.5374 3.04997 50.4574 2.62997 50.3074C2.21997 50.1574 1.85997 49.9374 1.54997 49.6474C1.24997 49.3574 1.00997 49.0074 0.839966 48.6074C0.669966 48.1974 0.589966 47.7474 0.589966 47.2374ZM2.02997 47.2374C2.02997 47.5274 2.07997 47.8074 2.16997 48.0474C2.25997 48.2974 2.38997 48.5074 2.55997 48.6874C2.72997 48.8674 2.93997 49.0074 3.17997 49.1074C3.41997 49.2074 3.68997 49.2574 3.97997 49.2574C4.26997 49.2574 4.53997 49.2074 4.77997 49.1074C5.01997 49.0074 5.22997 48.8674 5.39997 48.6874C5.56997 48.5074 5.69997 48.2974 5.79997 48.0474C5.88997 47.7974 5.93997 47.5274 5.93997 47.2374C5.93997 46.9474 5.88997 46.6774 5.79997 46.4274C5.70997 46.1774 5.57997 45.9674 5.39997 45.7874C5.22997 45.6074 5.01997 45.4674 4.77997 45.3674C4.53997 45.2674 4.26997 45.2174 3.97997 45.2174C3.68997 45.2174 3.41997 45.2674 3.17997 45.3674C2.93997 45.4674 2.72997 45.6074 2.55997 45.7874C2.38997 45.9674 2.25997 46.1874 2.16997 46.4274C2.07997 46.6774 2.02997 46.9474 2.02997 47.2374Z" fill="#242B57"/>
<path d="M8.14001 46.0573H9.42002V46.6473H9.44001C9.48001 46.5673 9.54002 46.4773 9.62002 46.3973C9.70002 46.3173 9.79001 46.2373 9.90001 46.1773C10.01 46.1173 10.13 46.0573 10.26 46.0173C10.4 45.9773 10.54 45.9573 10.7 45.9573C11.04 45.9573 11.31 46.0073 11.52 46.1173C11.73 46.2173 11.89 46.3673 12 46.5473C12.12 46.7273 12.19 46.9473 12.24 47.1973C12.28 47.4473 12.3 47.7173 12.3 48.0073V50.3873H10.97V48.2773C10.97 48.1573 10.97 48.0273 10.96 47.8873C10.96 47.7573 10.92 47.6273 10.88 47.5173C10.84 47.4073 10.77 47.3173 10.68 47.2473C10.59 47.1773 10.46 47.1373 10.28 47.1373C10.1 47.1373 9.97001 47.1673 9.86001 47.2273C9.75001 47.2873 9.67002 47.3673 9.62002 47.4773C9.56002 47.5773 9.53002 47.6973 9.51002 47.8273C9.49002 47.9573 9.48001 48.0973 9.48001 48.2373V50.3873H8.15001V46.0673L8.14001 46.0573Z" fill="#242B57"/>
<path d="M14.59 43.6674H13.26V50.3773H14.59V43.6674Z" fill="#242B57"/>
<path d="M15.46 44.6974C15.46 44.4874 15.54 44.3074 15.69 44.1474C15.84 43.9974 16.02 43.9174 16.24 43.9174C16.46 43.9174 16.63 43.9974 16.79 44.1474C16.94 44.2974 17.02 44.4774 17.02 44.6974C17.02 44.9174 16.94 45.0974 16.79 45.2474C16.64 45.3974 16.46 45.4774 16.24 45.4774C16.02 45.4774 15.84 45.3974 15.69 45.2474C15.54 45.0974 15.46 44.9174 15.46 44.6974ZM15.57 46.0574H16.9V50.3773H15.57V46.0574Z" fill="#242B57"/>
<path d="M17.86 46.0573H19.14V46.6473H19.16C19.2 46.5673 19.26 46.4773 19.34 46.3973C19.42 46.3173 19.51 46.2373 19.61 46.1773C19.72 46.1173 19.84 46.0573 19.97 46.0173C20.11 45.9773 20.25 45.9573 20.41 45.9573C20.75 45.9573 21.02 46.0073 21.23 46.1173C21.44 46.2173 21.6 46.3673 21.71 46.5473C21.83 46.7273 21.9 46.9473 21.95 47.1973C21.99 47.4473 22.01 47.7173 22.01 48.0073V50.3873H20.68V48.2773C20.68 48.1573 20.68 48.0273 20.67 47.8873C20.67 47.7573 20.63 47.6273 20.59 47.5173C20.55 47.4073 20.48 47.3173 20.39 47.2473C20.3 47.1773 20.17 47.1373 20 47.1373C19.83 47.1373 19.69 47.1673 19.58 47.2273C19.47 47.2873 19.39 47.3673 19.34 47.4773C19.28 47.5773 19.25 47.6973 19.23 47.8273C19.21 47.9573 19.2 48.0973 19.2 48.2373V50.3873H17.87V46.0673L17.86 46.0573Z" fill="#242B57"/>
<path d="M27.0399 49.6274C26.8299 49.8974 26.5599 50.1074 26.2299 50.2574C25.8999 50.4074 25.5699 50.4774 25.2199 50.4774C24.8699 50.4774 24.5799 50.4274 24.2799 50.3174C23.9899 50.2074 23.7299 50.0574 23.5199 49.8574C23.2999 49.6574 23.1299 49.4174 23.0099 49.1374C22.8899 48.8574 22.8199 48.5474 22.8199 48.2074C22.8199 47.8674 22.8799 47.5574 23.0099 47.2774C23.1299 46.9974 23.2999 46.7574 23.5199 46.5574C23.7399 46.3574 23.9899 46.2074 24.2799 46.0974C24.5699 45.9874 24.8899 45.9374 25.2199 45.9374C25.5299 45.9374 25.8099 45.9874 26.0599 46.0974C26.3099 46.2074 26.5199 46.3574 26.6999 46.5574C26.8699 46.7574 27.0099 46.9974 27.0999 47.2774C27.1899 47.5574 27.2399 47.8674 27.2399 48.2074V48.6274H24.1499C24.1999 48.8874 24.3199 49.0874 24.4999 49.2374C24.6799 49.3874 24.8999 49.4674 25.1599 49.4674C25.3799 49.4674 25.5599 49.4174 25.7199 49.3174C25.8699 49.2174 25.9999 49.0974 26.1099 48.9374L27.0399 49.6174V49.6274ZM25.9099 47.7274C25.9099 47.5074 25.8399 47.3074 25.6899 47.1474C25.5399 46.9874 25.3399 46.9074 25.0899 46.9074C24.9399 46.9074 24.8099 46.9274 24.6999 46.9774C24.5899 47.0274 24.4899 47.0874 24.4099 47.1574C24.3299 47.2274 24.2699 47.3174 24.2199 47.4174C24.1799 47.5174 24.1499 47.6174 24.1399 47.7274H25.8999H25.9099Z" fill="#242B57"/>
<path d="M30.85 44.0873H33.2C33.47 44.0873 33.75 44.1073 34.02 44.1473C34.3 44.1873 34.54 44.2673 34.76 44.3773C34.98 44.4973 35.16 44.6573 35.29 44.8673C35.43 45.0773 35.49 45.3473 35.49 45.6873C35.49 46.0273 35.39 46.3373 35.19 46.5673C34.99 46.7973 34.73 46.9673 34.4 47.0673V47.0873C34.61 47.1173 34.79 47.1773 34.96 47.2573C35.13 47.3373 35.27 47.4573 35.4 47.5873C35.52 47.7173 35.61 47.8773 35.68 48.0473C35.75 48.2273 35.78 48.4173 35.78 48.6173C35.78 48.9473 35.71 49.2273 35.57 49.4473C35.43 49.6673 35.24 49.8473 35.02 49.9873C34.79 50.1273 34.54 50.2173 34.26 50.2773C33.98 50.3373 33.7 50.3673 33.42 50.3673H30.84V44.0773L30.85 44.0873ZM32.24 46.5973H33.24C33.35 46.5973 33.45 46.5873 33.56 46.5673C33.66 46.5473 33.76 46.5073 33.84 46.4473C33.92 46.3973 33.99 46.3273 34.04 46.2373C34.09 46.1473 34.12 46.0373 34.12 45.9173C34.12 45.7973 34.09 45.6773 34.04 45.5973C33.98 45.5073 33.91 45.4473 33.82 45.3973C33.73 45.3473 33.63 45.3173 33.52 45.2973C33.41 45.2773 33.3 45.2673 33.19 45.2673H32.25V46.6073L32.24 46.5973ZM32.24 49.1973H33.48C33.59 49.1973 33.7 49.1873 33.8 49.1573C33.91 49.1373 34.01 49.0973 34.1 49.0373C34.19 48.9773 34.26 48.8973 34.32 48.8073C34.38 48.7173 34.4 48.5973 34.4 48.4673C34.4 48.3173 34.36 48.1973 34.29 48.1073C34.22 48.0173 34.12 47.9473 34.01 47.8973C33.9 47.8473 33.78 47.8173 33.65 47.7973C33.52 47.7773 33.4 47.7673 33.28 47.7673H32.23V49.1973H32.24Z" fill="#242B57"/>
<path d="M39.14 49.8373H39.12C38.97 50.0673 38.77 50.2373 38.53 50.3373C38.28 50.4373 38.03 50.4873 37.75 50.4873C37.55 50.4873 37.35 50.4573 37.17 50.4073C36.98 50.3473 36.82 50.2673 36.68 50.1573C36.54 50.0473 36.43 49.9073 36.34 49.7373C36.26 49.5673 36.22 49.3773 36.22 49.1573C36.22 48.9073 36.27 48.6973 36.36 48.5273C36.45 48.3573 36.58 48.2173 36.73 48.0973C36.89 47.9873 37.07 47.8973 37.27 47.8373C37.47 47.7773 37.68 47.7273 37.9 47.6973C38.12 47.6673 38.33 47.6473 38.55 47.6473C38.77 47.6473 38.97 47.6473 39.15 47.6473C39.15 47.4073 39.06 47.2173 38.9 47.0873C38.73 46.9473 38.53 46.8773 38.3 46.8773C38.08 46.8773 37.88 46.9273 37.7 47.0173C37.52 47.1073 37.36 47.2373 37.22 47.3973L36.51 46.6673C36.76 46.4373 37.05 46.2673 37.38 46.1473C37.71 46.0373 38.06 45.9773 38.41 45.9773C38.8 45.9773 39.12 46.0273 39.37 46.1273C39.62 46.2273 39.82 46.3673 39.97 46.5573C40.12 46.7473 40.23 46.9773 40.29 47.2573C40.35 47.5373 40.38 47.8473 40.38 48.2173V50.4073H39.15V49.8673L39.14 49.8373ZM38.81 48.4873C38.71 48.4873 38.58 48.4873 38.43 48.4973C38.28 48.4973 38.13 48.5273 38 48.5773C37.86 48.6173 37.74 48.6773 37.64 48.7673C37.54 48.8473 37.49 48.9673 37.49 49.1173C37.49 49.2773 37.56 49.3973 37.69 49.4673C37.83 49.5473 37.97 49.5873 38.12 49.5873C38.25 49.5873 38.38 49.5673 38.5 49.5373C38.62 49.4973 38.73 49.4473 38.82 49.3873C38.91 49.3273 38.99 49.2373 39.05 49.1373C39.11 49.0373 39.14 48.9173 39.14 48.7773V48.4973H38.81V48.4873Z" fill="#242B57"/>
<path d="M41.2 46.0573H42.48V46.6473H42.5C42.54 46.5673 42.6 46.4773 42.68 46.3973C42.76 46.3173 42.85 46.2373 42.96 46.1773C43.07 46.1173 43.19 46.0573 43.32 46.0173C43.46 45.9773 43.6 45.9573 43.77 45.9573C44.11 45.9573 44.38 46.0073 44.59 46.1173C44.8 46.2173 44.96 46.3673 45.07 46.5473C45.19 46.7273 45.26 46.9473 45.31 47.1973C45.35 47.4473 45.37 47.7173 45.37 48.0073V50.3873H44.04V48.2773C44.04 48.1573 44.04 48.0273 44.03 47.8873C44.02 47.7573 43.99 47.6273 43.95 47.5173C43.91 47.4073 43.84 47.3173 43.75 47.2473C43.66 47.1773 43.53 47.1373 43.36 47.1373C43.19 47.1373 43.05 47.1673 42.94 47.2273C42.83 47.2873 42.75 47.3673 42.7 47.4773C42.64 47.5773 42.61 47.6973 42.59 47.8273C42.57 47.9573 42.56 48.0973 42.56 48.2373V50.3873H41.23V46.0673L41.2 46.0573Z" fill="#242B57"/>
<path d="M46.3 43.6674H47.63V47.7673L49.11 46.0574H50.74L49.03 48.0074L50.78 50.3773H49.11L47.65 48.1874H47.63V50.3773H46.3V43.6674Z" fill="#242B57"/>
<path d="M51.15 44.6974C51.15 44.4874 51.23 44.3074 51.38 44.1474C51.53 43.9974 51.71 43.9174 51.93 43.9174C52.15 43.9174 52.32 43.9974 52.48 44.1474C52.63 44.2974 52.71 44.4774 52.71 44.6974C52.71 44.9174 52.63 45.0974 52.48 45.2474C52.33 45.3974 52.15 45.4774 51.93 45.4774C51.71 45.4774 51.53 45.3974 51.38 45.2474C51.23 45.0974 51.15 44.9174 51.15 44.6974ZM51.26 46.0574H52.59V50.3773H51.26V46.0574Z" fill="#242B57"/>
<path d="M53.55 46.0573H54.83V46.6473H54.85C54.89 46.5673 54.95 46.4773 55.03 46.3973C55.11 46.3173 55.2 46.2373 55.31 46.1773C55.42 46.1173 55.54 46.0573 55.67 46.0173C55.81 45.9773 55.95 45.9573 56.11 45.9573C56.45 45.9573 56.72 46.0073 56.93 46.1173C57.14 46.2173 57.3 46.3673 57.42 46.5473C57.53 46.7273 57.61 46.9473 57.65 47.1973C57.69 47.4473 57.71 47.7173 57.71 48.0073V50.3873H56.38V48.2773C56.38 48.1573 56.38 48.0273 56.37 47.8873C56.37 47.7573 56.33 47.6273 56.29 47.5173C56.24 47.4073 56.18 47.3173 56.08 47.2473C55.99 47.1773 55.86 47.1373 55.68 47.1373C55.5 47.1373 55.37 47.1673 55.26 47.2273C55.15 47.2873 55.07 47.3673 55.02 47.4773C54.96 47.5773 54.93 47.6973 54.91 47.8273C54.89 47.9573 54.88 48.0973 54.88 48.2373V50.3873H53.55V46.0673V46.0573Z" fill="#242B57"/>
<path d="M63.17 50.0073C63.17 50.8273 62.96 51.4473 62.55 51.8673C62.14 52.2873 61.51 52.5073 60.67 52.5073C60.28 52.5073 59.91 52.4673 59.53 52.3773C59.16 52.2873 58.81 52.1273 58.5 51.8773L59.24 50.7773C59.45 50.9473 59.67 51.0873 59.89 51.1873C60.12 51.2873 60.37 51.3373 60.64 51.3373C61.05 51.3373 61.35 51.2373 61.54 51.0373C61.73 50.8373 61.83 50.5873 61.83 50.2773V49.8573H61.81C61.66 50.0673 61.47 50.2073 61.24 50.2973C61.01 50.3873 60.8 50.4273 60.6 50.4273C60.28 50.4273 59.99 50.3773 59.73 50.2673C59.47 50.1573 59.25 50.0073 59.06 49.8073C58.87 49.6073 58.73 49.3773 58.63 49.0973C58.53 48.8273 58.48 48.5273 58.48 48.1973C58.48 47.9173 58.53 47.6373 58.62 47.3673C58.71 47.0973 58.84 46.8573 59.01 46.6473C59.18 46.4373 59.38 46.2773 59.63 46.1473C59.87 46.0173 60.15 45.9573 60.46 45.9573C60.65 45.9573 60.82 45.9773 60.98 46.0173C61.14 46.0573 61.28 46.1173 61.4 46.1773C61.52 46.2373 61.63 46.3173 61.72 46.3973C61.81 46.4773 61.88 46.5573 61.93 46.6373H61.95V46.0673H63.18V50.0173L63.17 50.0073ZM59.81 48.1873C59.81 48.3273 59.84 48.4673 59.89 48.5973C59.94 48.7273 60.02 48.8373 60.12 48.9373C60.22 49.0373 60.33 49.1173 60.46 49.1673C60.59 49.2273 60.73 49.2573 60.88 49.2573C61.03 49.2573 61.17 49.2273 61.3 49.1673C61.43 49.1073 61.54 49.0273 61.64 48.9373C61.74 48.8373 61.81 48.7273 61.87 48.5973C61.92 48.4673 61.95 48.3373 61.95 48.1873C61.95 48.0373 61.92 47.9073 61.87 47.7873C61.82 47.6573 61.74 47.5473 61.64 47.4473C61.54 47.3473 61.43 47.2673 61.3 47.2073C61.17 47.1473 61.03 47.1173 60.88 47.1173C60.73 47.1173 60.58 47.1473 60.46 47.2073C60.33 47.2673 60.22 47.3473 60.12 47.4473C60.02 47.5473 59.95 47.6573 59.89 47.7873C59.84 47.9173 59.81 48.0473 59.81 48.1873Z" fill="#242B57"/>
<path d="M67.04 44.0873H69.38C69.71 44.0873 70.01 44.1173 70.3 44.1773C70.59 44.2373 70.84 44.3373 71.06 44.4873C71.28 44.6273 71.45 44.8273 71.58 45.0773C71.71 45.3273 71.77 45.6373 71.77 46.0073C71.77 46.3773 71.71 46.6773 71.59 46.9273C71.47 47.1773 71.31 47.3773 71.1 47.5173C70.89 47.6673 70.65 47.7673 70.36 47.8273C70.08 47.8873 69.77 47.9173 69.44 47.9173H68.43V50.3673H67.04V44.0773V44.0873ZM68.43 46.7473H69.35C69.47 46.7473 69.59 46.7373 69.71 46.7073C69.83 46.6873 69.93 46.6473 70.02 46.5873C70.11 46.5273 70.19 46.4573 70.24 46.3573C70.3 46.2573 70.32 46.1373 70.32 45.9873C70.32 45.8273 70.28 45.6973 70.21 45.5973C70.14 45.4973 70.04 45.4273 69.93 45.3673C69.82 45.3173 69.69 45.2773 69.54 45.2673C69.4 45.2573 69.26 45.2473 69.13 45.2473H68.42V46.7373L68.43 46.7473Z" fill="#242B57"/>
<path d="M75.17 49.8373H75.15C75 50.0673 74.8 50.2373 74.56 50.3373C74.31 50.4373 74.05 50.4873 73.78 50.4873C73.58 50.4873 73.38 50.4573 73.2 50.4073C73.01 50.3473 72.85 50.2673 72.71 50.1573C72.57 50.0473 72.46 49.9073 72.37 49.7373C72.29 49.5673 72.25 49.3773 72.25 49.1573C72.25 48.9073 72.3 48.6973 72.39 48.5273C72.48 48.3573 72.61 48.2173 72.76 48.0973C72.92 47.9873 73.1 47.8973 73.3 47.8373C73.5 47.7773 73.71 47.7273 73.93 47.6973C74.15 47.6673 74.36 47.6473 74.58 47.6473C74.8 47.6473 75 47.6473 75.18 47.6473C75.18 47.4073 75.1 47.2173 74.93 47.0873C74.76 46.9473 74.56 46.8773 74.33 46.8773C74.1 46.8773 73.91 46.9273 73.73 47.0173C73.55 47.1073 73.39 47.2373 73.25 47.3973L72.54 46.6673C72.79 46.4373 73.08 46.2673 73.41 46.1473C73.74 46.0373 74.08 45.9773 74.44 45.9773C74.83 45.9773 75.15 46.0273 75.4 46.1273C75.65 46.2273 75.85 46.3673 76 46.5573C76.15 46.7473 76.26 46.9773 76.31 47.2573C76.37 47.5373 76.4 47.8473 76.4 48.2173V50.4073H75.17V49.8673V49.8373ZM74.84 48.4873C74.74 48.4873 74.61 48.4873 74.46 48.4973C74.31 48.4973 74.16 48.5273 74.02 48.5773C73.88 48.6173 73.76 48.6773 73.66 48.7673C73.56 48.8473 73.51 48.9673 73.51 49.1173C73.51 49.2773 73.58 49.3973 73.72 49.4673C73.86 49.5473 74 49.5873 74.15 49.5873C74.28 49.5873 74.41 49.5673 74.53 49.5373C74.65 49.4973 74.76 49.4473 74.85 49.3873C74.94 49.3273 75.02 49.2373 75.08 49.1373C75.14 49.0373 75.16 48.9173 75.16 48.7773V48.4973H74.83L74.84 48.4873Z" fill="#242B57"/>
<path d="M79.7201 51.0773C79.6301 51.3073 79.5501 51.5073 79.4601 51.6873C79.3801 51.8673 79.2701 52.0173 79.1401 52.1373C79.0101 52.2573 78.85 52.3473 78.66 52.4173C78.47 52.4773 78.2101 52.5072 77.8901 52.5072C77.5501 52.5072 77.2101 52.4572 76.9001 52.3472L77.08 51.2572C77.28 51.3472 77.4901 51.3873 77.7001 51.3873C77.8501 51.3873 77.9701 51.3672 78.0601 51.3372C78.1601 51.3072 78.23 51.2573 78.3 51.1973C78.36 51.1373 78.4101 51.0573 78.4601 50.9673C78.5001 50.8773 78.55 50.7772 78.59 50.6572L78.69 50.4072L76.8 46.0573H78.2401L79.3501 48.9072H79.37L80.3201 46.0573H81.69L79.7401 51.0773H79.7201Z" fill="#242B57"/>
<path d="M82.17 46.0573H83.45V46.6473H83.47C83.51 46.5673 83.57 46.4773 83.65 46.3973C83.73 46.3173 83.82 46.2373 83.93 46.1773C84.04 46.1173 84.16 46.0573 84.29 46.0173C84.43 45.9773 84.58 45.9573 84.74 45.9573C85.04 45.9573 85.31 46.0173 85.54 46.1473C85.77 46.2673 85.95 46.4673 86.07 46.7273C86.22 46.4473 86.41 46.2473 86.63 46.1373C86.85 46.0173 87.12 45.9573 87.44 45.9573C87.73 45.9573 87.98 46.0073 88.17 46.1073C88.37 46.2073 88.53 46.3373 88.64 46.5073C88.76 46.6773 88.84 46.8773 88.89 47.1073C88.94 47.3373 88.97 47.5773 88.97 47.8373V50.3873H87.64V47.8773C87.64 47.6773 87.6 47.4973 87.51 47.3573C87.42 47.2073 87.27 47.1373 87.05 47.1373C86.9 47.1373 86.77 47.1673 86.66 47.2173C86.56 47.2673 86.47 47.3373 86.41 47.4273C86.35 47.5173 86.3 47.6173 86.28 47.7373C86.25 47.8573 86.24 47.9773 86.24 48.1073V50.3873H84.91V48.1073C84.91 48.0273 84.91 47.9373 84.91 47.8273C84.91 47.7173 84.88 47.6073 84.85 47.5073C84.81 47.4073 84.76 47.3173 84.68 47.2473C84.6 47.1773 84.48 47.1373 84.33 47.1373C84.16 47.1373 84.02 47.1673 83.91 47.2273C83.8 47.2873 83.72 47.3673 83.67 47.4773C83.61 47.5773 83.58 47.6973 83.56 47.8273C83.54 47.9573 83.53 48.0973 83.53 48.2373V50.3873H82.2V46.0673L82.17 46.0573Z" fill="#242B57"/>
<path d="M93.98 49.6274C93.77 49.8974 93.5 50.1074 93.17 50.2574C92.84 50.4074 92.51 50.4774 92.16 50.4774C91.81 50.4774 91.52 50.4274 91.22 50.3174C90.93 50.2074 90.67 50.0574 90.46 49.8574C90.24 49.6574 90.07 49.4174 89.95 49.1374C89.83 48.8574 89.76 48.5474 89.76 48.2074C89.76 47.8674 89.82 47.5574 89.95 47.2774C90.07 46.9974 90.24 46.7574 90.46 46.5574C90.67 46.3574 90.93 46.2074 91.22 46.0974C91.51 45.9874 91.83 45.9374 92.16 45.9374C92.47 45.9374 92.75 45.9874 93 46.0974C93.25 46.2074 93.46 46.3574 93.64 46.5574C93.81 46.7574 93.95 46.9974 94.04 47.2774C94.13 47.5574 94.18 47.8674 94.18 48.2074V48.6274H91.09C91.14 48.8874 91.26 49.0874 91.44 49.2374C91.62 49.3874 91.84 49.4674 92.1 49.4674C92.32 49.4674 92.51 49.4174 92.66 49.3174C92.81 49.2174 92.94 49.0974 93.06 48.9374L93.99 49.6174L93.98 49.6274ZM92.85 47.7274C92.85 47.5074 92.78 47.3074 92.63 47.1474C92.48 46.9874 92.28 46.9074 92.04 46.9074C91.89 46.9074 91.76 46.9274 91.65 46.9774C91.54 47.0274 91.44 47.0874 91.36 47.1574C91.28 47.2274 91.22 47.3174 91.17 47.4174C91.13 47.5174 91.1 47.6174 91.09 47.7274H92.85Z" fill="#242B57"/>
<path d="M94.99 46.0573H96.27V46.6473H96.29C96.33 46.5673 96.39 46.4773 96.47 46.3973C96.55 46.3173 96.64 46.2373 96.75 46.1773C96.86 46.1173 96.98 46.0573 97.11 46.0173C97.25 45.9773 97.39 45.9573 97.55 45.9573C97.89 45.9573 98.16 46.0073 98.37 46.1173C98.58 46.2173 98.74 46.3673 98.86 46.5473C98.98 46.7273 99.05 46.9473 99.09 47.1973C99.13 47.4473 99.15 47.7173 99.15 48.0073V50.3873H97.82V48.2773C97.82 48.1573 97.82 48.0273 97.81 47.8873C97.81 47.7573 97.77 47.6273 97.73 47.5173C97.68 47.4073 97.62 47.3173 97.52 47.2473C97.43 47.1773 97.3 47.1373 97.12 47.1373C96.94 47.1373 96.81 47.1673 96.7 47.2273C96.59 47.2873 96.51 47.3673 96.46 47.4773C96.4 47.5773 96.37 47.6973 96.35 47.8273C96.33 47.9573 96.32 48.0973 96.32 48.2373V50.3873H94.99V46.0673V46.0573Z" fill="#242B57"/>
<path d="M103.03 47.1273H101.86V48.5674C101.86 48.6874 101.86 48.7974 101.88 48.8874C101.89 48.9874 101.92 49.0674 101.96 49.1374C102 49.2074 102.07 49.2673 102.15 49.2973C102.23 49.3373 102.35 49.3574 102.49 49.3574C102.56 49.3574 102.65 49.3574 102.77 49.3374C102.88 49.3274 102.97 49.2874 103.03 49.2374V50.3474C102.88 50.3974 102.73 50.4374 102.57 50.4574C102.41 50.4774 102.25 50.4874 102.1 50.4874C101.87 50.4874 101.67 50.4674 101.48 50.4174C101.29 50.3674 101.13 50.2974 100.98 50.1874C100.84 50.0874 100.73 49.9474 100.65 49.7874C100.57 49.6274 100.53 49.4174 100.53 49.1874V47.1374H99.6799V46.0674H100.53V44.7874H101.86V46.0674H103.03V47.1374V47.1273Z" fill="#242B57"/>
<path d="M106.14 47.3273C105.94 47.0873 105.69 46.9673 105.37 46.9673C105.26 46.9673 105.15 46.9973 105.04 47.0473C104.93 47.0973 104.88 47.1973 104.88 47.3273C104.88 47.4373 104.93 47.5073 105.04 47.5673C105.15 47.6173 105.29 47.6573 105.46 47.6973C105.63 47.7373 105.81 47.7773 106 47.8173C106.19 47.8573 106.37 47.9273 106.54 48.0273C106.71 48.1173 106.85 48.2473 106.96 48.4173C107.07 48.5773 107.12 48.7973 107.12 49.0673C107.12 49.3373 107.06 49.5773 106.94 49.7573C106.82 49.9373 106.66 50.0873 106.47 50.1973C106.28 50.3073 106.07 50.3873 105.83 50.4273C105.59 50.4673 105.36 50.4873 105.13 50.4873C104.83 50.4873 104.52 50.4473 104.22 50.3573C103.91 50.2773 103.65 50.1173 103.44 49.8973L104.25 48.9973C104.37 49.1473 104.51 49.2673 104.66 49.3473C104.81 49.4273 104.99 49.4673 105.19 49.4673C105.34 49.4673 105.48 49.4473 105.61 49.3973C105.73 49.3473 105.8 49.2773 105.8 49.1573C105.8 49.0473 105.75 48.9573 105.64 48.9073C105.53 48.8473 105.39 48.8073 105.22 48.7673C105.05 48.7273 104.87 48.6873 104.68 48.6473C104.49 48.6073 104.31 48.5373 104.14 48.4473C103.97 48.3573 103.83 48.2273 103.72 48.0673C103.61 47.9073 103.56 47.6873 103.56 47.4173C103.56 47.1673 103.61 46.9473 103.72 46.7573C103.82 46.5773 103.96 46.4173 104.13 46.3073C104.3 46.1873 104.49 46.0973 104.71 46.0473C104.93 45.9973 105.15 45.9673 105.38 45.9673C105.66 45.9673 105.95 46.0073 106.24 46.0873C106.53 46.1673 106.77 46.3173 106.98 46.5273L106.16 47.3373L106.14 47.3273Z" fill="#242B57"/>
<path d="M39.52 4.49731H56.85V9.74732H45.21V15.0073H55.97V20.2573H45.21V30.3273H39.52V4.49731Z" fill="#242B57"/>
<path d="M60.9399 4.49731H70.5399C71.8799 4.49731 73.1399 4.61732 74.3299 4.85732C75.5199 5.09732 76.5599 5.51732 77.4499 6.11732C78.3399 6.71732 79.0399 7.51732 79.5699 8.52732C80.0899 9.53732 80.3499 10.8073 80.3499 12.3373C80.3499 13.8673 80.1099 15.1073 79.6199 16.1273C79.1299 17.1473 78.4599 17.9673 77.6099 18.5773C76.7599 19.1873 75.7499 19.6173 74.5799 19.8773C73.4099 20.1273 72.1499 20.2573 70.7799 20.2573H66.6199V30.3273H60.9299V4.49731H60.9399ZM66.6299 15.4473H70.4299C70.9399 15.4473 71.4299 15.3973 71.9099 15.2973C72.3899 15.1973 72.8099 15.0373 73.1899 14.8073C73.5699 14.5773 73.8699 14.2573 74.0999 13.8573C74.3299 13.4573 74.4499 12.9473 74.4499 12.3473C74.4499 11.6873 74.2999 11.1573 73.9899 10.7573C73.6899 10.3573 73.2999 10.0473 72.8199 9.82732C72.3499 9.60732 71.8199 9.46731 71.2299 9.40731C70.6499 9.34731 70.0899 9.31731 69.5499 9.31731H66.6299V15.4473Z" fill="#242B57"/>
<path d="M90.34 16.8273L81.8 4.49731H88.96L94.46 13.5473L99.76 4.49731H106.65L98.3 16.7173L107.64 30.3273H100.48L94.17 19.9273L88.04 30.3273H81.29L90.34 16.8273Z" fill="#242B57"/>
<path d="M14.59 25.4873L10.99 20.6073C10.46 19.8773 9.53 18.9273 9.53 17.9673C9.53 17.0073 10.45 16.0573 10.99 15.3273L14.59 10.4473C14.76 10.2173 14.93 10.0473 15.09 9.91731V4.29731C15.09 -0.212694 13.2 -1.35269 10.9 1.76731L3.13 12.2873C1.98 13.8473 0 15.9073 0 17.9673C0 20.0273 1.98 22.0873 3.13 23.6573L10.9 34.1573C13.21 37.2873 15.09 36.1573 15.09 31.6373V26.0173C14.93 25.8873 14.77 25.7173 14.59 25.4873Z" fill="#0A85C7"/>
<path d="M29.85 12.2873L22.08 1.76731C19.77 -1.36269 17.89 -0.222695 17.89 4.29731V9.91731C18.05 10.0473 18.21 10.2173 18.38 10.4473L21.99 15.3273C22.53 16.0573 23.45 17.0073 23.45 17.9673C23.45 18.9273 22.53 19.8773 21.99 20.6073L18.38 25.4873C18.21 25.7273 18.04 25.8873 17.89 26.0273V31.6473C17.89 36.1673 19.78 37.2973 22.08 34.1673L29.85 23.6573C31 22.0873 32.98 20.0273 32.98 17.9673C32.98 15.9073 31 13.8573 29.85 12.2873Z" fill="#242B57"/>
</svg>
