<svg width="85" height="74" viewBox="0 0 85 74" fill="none" xmlns="http://www.w3.org/2000/svg">
<path fill-rule="evenodd" clip-rule="evenodd" d="M84.5526 21.84C84.5126 22.16 84.4726 22.47 84.4326 22.79C84.1426 25.05 83.1825 26.99 81.6125 28.62C80.0125 30.29 78.0725 31.33 75.7925 31.71C72.1325 32.32 67.9026 30.82 65.7526 27.47C65.4226 26.95 65.2026 26.36 64.9326 25.8C64.8626 25.65 64.8926 25.54 65.0026 25.4C65.3926 24.94 65.7725 24.47 66.1625 24C66.2025 23.95 66.2226 23.89 66.2826 23.78C66.4226 24.18 66.5125 24.48 66.6425 24.77C67.8525 27.51 69.9425 29.16 72.8925 29.67C77.1625 30.4 81.2426 27.52 82.2126 23.45C82.3626 22.81 82.4326 22.15 82.4626 21.5C82.4926 20.65 82.4725 19.79 82.4225 18.94C82.3325 17.32 81.7326 15.87 80.7526 14.6C79.3126 12.74 77.4225 11.6 75.0725 11.33C72.7425 11.06 70.6726 11.77 68.8726 13.25C66.9926 14.79 65.3726 16.59 63.8126 18.45C63.0826 19.31 62.3926 20.2 61.6826 21.08C61.6426 21.13 61.5925 21.18 61.5125 21.27C61.5125 21.16 61.5026 21.1 61.5026 21.04C61.5026 20.18 61.5026 19.32 61.5026 18.45C61.5026 18.33 61.5425 18.19 61.6125 18.1C62.8625 16.49 64.1525 14.91 65.6025 13.48C66.6725 12.42 67.8425 11.47 69.1125 10.66C70.2825 9.92002 71.5725 9.49002 72.9425 9.31002C78.3825 8.60002 83.1125 12.44 84.2325 17.16C84.3625 17.71 84.4126 18.28 84.4926 18.84C84.5126 18.96 84.5326 19.09 84.5626 19.21V21.85L84.5526 21.84Z" fill="#01AF4C"/>
<path fill-rule="evenodd" clip-rule="evenodd" d="M57.0425 66.0099C57.2025 66.1299 57.3125 66.2199 57.4225 66.3099C59.0625 67.6399 60.9225 68.4799 63.0125 68.7499C64.4025 68.9299 65.7925 68.8999 67.1225 68.3499C68.6025 67.7299 69.3425 66.5699 69.4725 65.0099C69.5425 64.1899 69.5125 63.3599 69.5325 62.5399C69.5325 62.4699 69.5225 62.3999 69.5025 62.3099C69.4525 62.3399 69.4125 62.3499 69.3925 62.3699C68.4625 63.4299 67.2425 63.9799 65.9025 64.2499C63.7125 64.6799 61.5925 64.4499 59.6025 63.3999C57.4825 62.2699 56.2525 60.4399 55.6625 58.1499C55.4325 57.2499 55.3325 56.3299 55.3325 55.3999C55.3325 51.3299 55.3325 47.2499 55.3325 43.1799C55.3325 42.9466 55.4525 42.8266 55.6925 42.8199C57.0925 42.8199 58.5025 42.8199 59.9025 42.8199C60.1825 42.8199 60.2525 42.8999 60.2525 43.1799C60.2525 47.3199 60.2225 51.4599 60.2525 55.5899C60.2725 57.4899 61.4025 59.4199 63.7925 59.8299C65.1825 60.0699 66.5025 59.8499 67.6425 58.9599C68.5025 58.2799 68.9325 57.3599 69.0725 56.2899C69.1225 55.8699 69.1325 55.4499 69.1325 55.0299C69.1325 51.0799 69.1325 47.1399 69.1325 43.1899C69.1325 42.9433 69.2592 42.8199 69.5125 42.8199C70.8825 42.8199 72.2425 42.8199 73.6125 42.8199C73.8225 42.8199 73.8925 42.8799 73.8925 43.0999C73.8925 50.3999 73.9125 57.7099 73.8725 65.0099C73.8725 67.0099 73.2725 68.8599 71.9025 70.3899C70.7625 71.6699 69.3025 72.4299 67.6725 72.8599C66.7025 73.1199 65.7125 73.2299 64.7125 73.2799C61.9325 73.4099 59.4525 72.6299 57.2725 70.8999C57.0725 70.7399 56.9925 70.5799 56.9925 70.3199C57.0025 68.9699 56.9925 67.6199 56.9925 66.2699C56.9925 66.2099 56.9925 66.1399 57.0125 66.0099H57.0425Z" fill="#01AF4C"/>
<path fill-rule="evenodd" clip-rule="evenodd" d="M15.5525 64.5499H15.2225C13.8725 64.5499 12.5225 64.5499 11.1725 64.5499C10.8825 64.5499 10.8225 64.4599 10.8225 64.1899C10.8225 58.4399 10.8225 52.68 10.8225 46.93C10.8225 44.16 10.8225 41.3899 10.8225 38.6199C10.8225 38.2599 10.8225 38.2599 11.1825 38.2599C14.5325 38.2599 17.8825 38.1999 21.2325 38.2899C23.6525 38.3499 25.8625 39.0799 27.6225 40.8699C28.7225 41.9899 29.3725 43.3499 29.6625 44.8799C30.0325 46.8199 29.9925 48.7499 29.3425 50.6299C28.3625 53.4499 26.3125 55.1199 23.4725 55.8599C22.5125 56.1099 21.5325 56.2099 20.5325 56.2099C18.9925 56.2099 17.4525 56.2099 15.9125 56.2099C15.5525 56.2099 15.5525 56.2099 15.5525 56.5799C15.5525 59.1199 15.5525 61.6599 15.5525 64.2099V64.56V64.5499ZM18.2425 51.8099C18.8925 51.8099 19.5425 51.8299 20.1925 51.8099C20.7525 51.7899 21.3125 51.7599 21.8525 51.6499C23.3325 51.3399 24.4225 50.5099 24.9125 49.0399C25.3125 47.8599 25.3225 46.6599 24.9725 45.4699C24.6325 44.3199 23.8925 43.5199 22.7625 43.0799C22.0625 42.7999 21.3325 42.69 20.5925 42.68C18.9925 42.66 17.4025 42.68 15.8025 42.68C15.6025 42.68 15.5425 42.76 15.5425 42.9599C15.5425 45.82 15.5425 48.6799 15.5425 51.5399C15.5425 51.7699 15.6225 51.84 15.8425 51.84C16.6425 51.83 17.4425 51.84 18.2325 51.84L18.2425 51.8099Z" fill="#01AF4C"/>
<path fill-rule="evenodd" clip-rule="evenodd" d="M47.6326 62.31C46.5526 63.44 45.2526 64.06 43.7726 64.36C42.6726 64.58 41.5726 64.56 40.4626 64.45C39.1226 64.31 37.8426 63.95 36.6526 63.3C34.4526 62.09 33.1026 60.21 32.4326 57.81C32.1326 56.76 32.0026 55.67 32.0026 54.58C32.0026 53.53 31.9726 52.47 32.0626 51.42C32.4026 47.35 34.7126 43.96 39.2026 42.9C41.5526 42.34 43.9026 42.39 46.1926 43.19C49.2726 44.26 51.1526 46.46 51.9526 49.6C52.1826 50.53 52.2926 51.47 52.2926 52.43C52.2926 56.26 52.2926 60.08 52.2926 63.91C52.2926 64.17 52.1626 64.3 51.9026 64.3C50.5926 64.3 49.2826 64.3 47.9626 64.3C47.7226 64.3 47.6226 64.25 47.6326 63.98C47.6526 63.42 47.6326 62.87 47.6326 62.31ZM47.6826 53.62C47.6326 52.84 47.6426 52.06 47.5026 51.3C47.1626 49.45 46.1226 48.13 44.3426 47.46C43.2226 47.04 42.0726 47.01 40.9026 47.21C38.7326 47.59 37.0726 49.29 36.7426 51.46C36.5626 52.67 36.5626 53.89 36.6926 55.11C36.9026 57.13 37.9326 58.62 39.7826 59.5C40.9326 60.04 42.1526 60.09 43.4126 59.92C45.3826 59.65 46.8626 58.39 47.4026 56.47C47.6626 55.54 47.6326 54.58 47.6826 53.63V53.62Z" fill="#01AF4C"/>
<path fill-rule="evenodd" clip-rule="evenodd" d="M21.5426 19.13H12.9126C12.9126 19.01 12.8926 18.92 12.8926 18.82C12.8926 18.36 12.8926 17.9 12.8926 17.44C12.8926 17.1867 13.0226 17.06 13.2826 17.06H20.2726C21.2826 17.06 22.2926 17.06 23.3026 17.06C23.5426 17.06 23.6126 17.13 23.6126 17.37C23.6126 20.96 23.6126 24.55 23.6026 28.13C23.6026 28.28 23.5326 28.46 23.4426 28.57C22.3926 29.79 21.0726 30.64 19.6226 31.29C18.2526 31.9 16.8026 32.25 15.3126 32.41C12.7726 32.69 10.2926 32.46 7.95259 31.37C3.85259 29.47 1.28258 26.29 0.352582 21.87C-0.197418 19.27 -0.147396 16.66 0.812604 14.13C2.0726 10.81 4.35259 8.39004 7.45259 6.72004C9.10259 5.84004 10.8626 5.31004 12.7226 5.10004C14.0926 4.95004 15.4526 5.00004 16.8126 5.10004C18.1526 5.20004 19.4526 5.45004 20.7226 5.92004C20.9826 6.02004 21.0926 6.13004 21.0826 6.43004C21.0526 7.06004 21.0826 7.69004 21.0826 8.36004C20.8226 8.23004 20.6126 8.12004 20.3926 8.01004C19.2526 7.46004 18.0326 7.16004 16.7726 7.06004C15.8626 6.99004 14.9426 6.94004 14.0326 6.95004C11.3026 6.98004 8.86259 7.88004 6.70259 9.53004C4.65259 11.1 3.22259 13.11 2.51259 15.6C2.15259 16.86 2.08258 18.15 2.13258 19.46C2.20258 21.12 2.55259 22.71 3.30259 24.19C4.94259 27.44 7.55259 29.45 11.1126 30.21C12.5526 30.52 14.0026 30.49 15.4626 30.32C17.1726 30.12 18.8026 29.67 20.2726 28.73C20.6726 28.48 21.0426 28.17 21.4026 27.86C21.5126 27.77 21.5926 27.58 21.5926 27.44C21.6026 24.76 21.5926 22.08 21.5926 19.4C21.5926 19.31 21.5726 19.22 21.5626 19.11L21.5426 19.13Z" fill="#01AF4C"/>
<path fill-rule="evenodd" clip-rule="evenodd" d="M52.8226 29.1499C52.8226 29.8199 52.8226 30.4499 52.8226 31.0799C52.8226 31.1499 52.7026 31.2599 52.6126 31.2899C51.9726 31.4699 51.3326 31.7099 50.6726 31.7799C47.9826 32.0699 45.5526 31.3499 43.4125 29.7099C41.1625 27.9799 39.7726 25.6999 39.4026 22.8799C39.2526 21.6799 39.2926 20.4499 39.3226 19.2299C39.3726 16.7899 40.2626 14.6599 41.8526 12.8199C43.4426 10.9999 45.4226 9.80995 47.8126 9.38995C51.0426 8.82995 53.9426 9.62995 56.4226 11.7799C58.3426 13.4399 59.5026 15.5599 59.9125 18.0699C59.9925 18.5499 60.0326 19.0399 60.0326 19.5199C60.0326 23.4999 60.0326 27.4799 60.0326 31.4699V31.8399H57.9726V31.4499C57.9726 27.4699 58.0026 23.4899 57.9726 19.4999C57.9326 15.3099 54.9126 12.1099 51.2026 11.4199C46.7126 10.5799 42.4026 13.6499 41.5126 18.0399C41.4226 18.4799 41.3726 18.9299 41.3626 19.3699C41.3426 20.5399 41.2526 21.7199 41.4926 22.8799C42.1126 25.9399 43.8926 28.0599 46.7626 29.2399C48.6626 30.0199 50.6026 29.9599 52.5326 29.2699C52.6226 29.2399 52.7226 29.2099 52.8426 29.1699L52.8226 29.1499Z" fill="#01AF4C"/>
<path fill-rule="evenodd" clip-rule="evenodd" d="M19.9525 20.73V21.02C19.9525 22.93 19.9525 24.84 19.9525 26.74C19.9525 26.95 19.8825 27.08 19.7325 27.2C18.8425 27.9 17.8026 28.28 16.7126 28.52C15.4826 28.8 14.2326 28.93 12.9726 28.85C9.28256 28.61 6.55254 26.82 4.79254 23.58C4.02254 22.16 3.70255 20.62 3.68255 19.01C3.65255 17.45 3.85254 15.94 4.54254 14.52C5.80254 11.92 7.83254 10.18 10.5125 9.17995C12.1225 8.57995 13.8025 8.43995 15.5125 8.54995C16.9625 8.63995 18.3826 8.85995 19.7426 9.39995C20.1226 9.54995 20.5026 9.72995 20.8726 9.90995C20.9526 9.94995 21.0425 10.07 21.0425 10.15C21.0525 10.88 21.0425 11.62 21.0425 12.41C20.9325 12.33 20.8526 12.29 20.7726 12.23C19.6426 11.37 18.3425 10.91 16.9525 10.76C16.0125 10.66 15.0725 10.56 14.1325 10.6C10.8325 10.74 8.25255 12.17 6.58255 15.08C6.00255 16.09 5.76255 17.2 5.74255 18.37C5.71255 19.72 5.85255 21.04 6.43255 22.28C7.59255 24.74 9.50254 26.27 12.2025 26.69C14.1125 26.99 15.9825 26.72 17.7925 26.06C17.9725 25.99 18.0425 25.89 18.0425 25.7C18.0425 24.84 18.0325 23.98 18.0425 23.11C18.0425 22.84 17.9726 22.74 17.6826 22.75C16.1826 22.76 14.6925 22.75 13.1925 22.76C12.9425 22.76 12.8626 22.7 12.8726 22.44C12.8926 21.87 12.8726 21.31 12.8726 20.72H19.9425L19.9525 20.73Z" fill="#01AF4C"/>
<path fill-rule="evenodd" clip-rule="evenodd" d="M69.1925 20.29C69.3125 20.83 69.3925 21.29 69.5125 21.73C69.8625 22.95 70.4626 24.02 71.3726 24.92C73.2926 26.81 75.9825 26.29 77.4825 24.76C78.3125 23.91 78.7725 22.89 78.7925 21.7C78.8125 20.8 78.8526 19.9 78.7726 19.01C78.5926 17.09 77.1525 15.49 75.2625 15.06C73.6025 14.68 72.1625 15.14 70.9225 16.26C69.2725 17.75 67.8326 19.44 66.4026 21.14C64.7826 23.07 63.2025 25.04 61.6125 26.99C61.5925 27.01 61.5826 27.04 61.5226 27.05C61.5226 26.98 61.5026 26.9 61.5026 26.83C61.5026 25.94 61.5026 25.05 61.5026 24.16C61.5026 24.01 61.5626 23.83 61.6526 23.71C63.1226 21.75 64.7225 19.9 66.3825 18.09C67.2925 17.11 68.1926 16.12 69.1526 15.19C70.2326 14.13 71.4926 13.32 72.9926 13C74.7826 12.62 76.4325 13.02 77.9225 14.07C79.4525 15.14 80.4225 16.6 80.7625 18.45C80.8225 18.77 80.8526 19.11 80.8426 19.43C80.8426 20.42 80.8826 21.42 80.7726 22.4C80.4926 24.99 78.5325 27.2 75.9825 27.93C73.1925 28.73 70.3425 27.6 68.6925 25.06C68.1925 24.28 67.8225 23.45 67.6125 22.55C67.5825 22.42 67.6225 22.24 67.7025 22.13C68.1325 21.57 68.5926 21.03 69.0326 20.48C69.0726 20.43 69.1026 20.37 69.1526 20.28L69.1925 20.29Z" fill="#01AF4C"/>
<path fill-rule="evenodd" clip-rule="evenodd" d="M52.8226 25.12C52.8226 25.83 52.8226 26.49 52.8226 27.15C52.8226 27.25 52.7026 27.37 52.6126 27.43C52.0626 27.8 51.4426 27.99 50.7926 28.09C47.9826 28.52 45.3226 27.26 43.8726 24.82C43.2626 23.79 42.9426 22.68 42.9526 21.47C42.9526 20.88 42.9526 20.3 42.9526 19.71C42.9326 17.48 43.8426 15.69 45.5526 14.32C49.3826 11.24 55.2926 13.24 56.2426 18.27C56.3326 18.73 56.3626 19.2 56.3626 19.66C56.3626 23.6 56.3626 27.53 56.3626 31.47C56.3626 31.7166 56.2359 31.84 55.9826 31.84C55.5226 31.84 55.0626 31.83 54.6026 31.84C54.3626 31.84 54.3126 31.76 54.3126 31.54C54.3126 30.49 54.3126 29.43 54.3126 28.38C54.3126 25.51 54.3126 22.64 54.3126 19.77C54.3126 18.75 54.0926 17.78 53.4926 16.94C52.5526 15.62 51.2726 14.96 49.6326 14.93C47.7226 14.9 45.6926 16.17 45.1326 18.4C45.0426 18.76 45.0026 19.14 44.9926 19.51C44.9726 20.16 44.9926 20.81 44.9926 21.46C44.9926 23.81 46.6326 25.74 48.9626 26.07C50.2326 26.25 51.4426 25.98 52.5326 25.29C52.6126 25.24 52.6826 25.19 52.8126 25.11L52.8226 25.12Z" fill="#01AF4C"/>
<path fill-rule="evenodd" clip-rule="evenodd" d="M41.6126 10.61C41.0926 11.18 40.6326 11.67 40.1926 12.16C39.6626 11.96 39.1426 11.69 38.6026 11.57C35.3426 10.83 32.4326 11.45 30.0826 13.96C29.0326 15.08 28.4526 16.46 28.2326 17.97C28.1226 18.68 28.0826 19.41 28.0826 20.13C28.0726 23.91 28.0826 27.69 28.0826 31.47C28.0826 31.73 27.9526 31.86 27.6926 31.86C27.2226 31.86 26.7526 31.86 26.2926 31.86C26.0926 31.86 26.0226 31.79 26.0426 31.61C26.0426 31.56 26.0426 31.52 26.0426 31.47C26.0426 27.53 26.0426 23.6 26.0426 19.66C26.0426 17.39 26.6026 15.29 27.9126 13.42C29.4726 11.21 31.6226 9.91997 34.2526 9.41997C36.3026 9.02997 38.3226 9.15997 40.2726 9.92997C40.7326 10.11 41.1526 10.37 41.6226 10.61H41.6126Z" fill="#01AF4C"/>
<path fill-rule="evenodd" clip-rule="evenodd" d="M39.2826 13.4799C38.9726 14.0999 38.6726 14.6899 38.3926 15.2599C37.9826 15.1599 37.5826 15.0299 37.1726 14.9799C35.2126 14.7499 33.3126 15.3699 32.2926 17.2499C31.9226 17.9399 31.7426 18.6899 31.7426 19.4699C31.7426 23.4599 31.7426 27.4499 31.7426 31.4399V31.8199H29.7026C29.7026 31.7299 29.6926 31.6299 29.6926 31.5299C29.6926 27.4699 29.6626 23.4199 29.7026 19.3599C29.7426 16.0899 31.9926 13.5399 35.0626 12.9899C36.2926 12.7699 37.5026 12.8399 38.7026 13.2199C38.9126 13.2799 39.1026 13.3899 39.3026 13.4799H39.2826Z" fill="#01AF4C"/>
<path fill-rule="evenodd" clip-rule="evenodd" d="M63.6726 0.0200195H65.7026C65.7026 0.13002 65.7126 0.230019 65.7126 0.330019C65.7126 3.83002 65.7126 7.34002 65.7126 10.84C65.7126 11.02 65.6526 11.14 65.5326 11.27C64.9826 11.83 64.4426 12.41 63.9026 12.98C63.8326 13.05 63.7726 13.13 63.6726 13.24V0.0200195Z" fill="#01AF4C"/>
<path fill-rule="evenodd" clip-rule="evenodd" d="M67.3225 10.16V9.81C67.3225 6.66 67.3225 3.52 67.3225 0.37C67.3225 0.123333 67.4492 0 67.7025 0C68.1225 0 68.5425 0 68.9725 0C69.2325 0 69.3625 0.136667 69.3625 0.41C69.3625 1.02 69.3625 1.62 69.3625 2.23C69.3625 4.31 69.3625 6.4 69.3625 8.48C69.3625 8.7 69.3025 8.82 69.1125 8.94C68.5825 9.27 68.0825 9.64 67.5725 9.99C67.5125 10.03 67.4425 10.08 67.3225 10.16Z" fill="#01AF4C"/>
</svg>
