<svg width="82" height="64" viewBox="0 0 82 64" fill="none" xmlns="http://www.w3.org/2000/svg">
<path d="M14.87 63.08V58.88C14.87 57.3 13.86 56.24 12.24 56.22C11.39 56.21 10.51 56.47 9.89 57.41C9.43 56.67 8.70001 56.22 7.68001 56.22C6.97001 56.22 6.27 56.43 5.72 57.21V56.38H4.26001V63.07H5.73001V59.36C5.73001 58.2 6.37001 57.58 7.37001 57.58C8.37001 57.58 8.83 58.21 8.83 59.34V63.06H10.3V59.35C10.3 58.19 10.97 57.57 11.94 57.57C12.91 57.57 13.41 58.2 13.41 59.33V63.05H14.88L14.87 63.08ZM36.61 56.39H34.23V54.36H32.76V56.39H31.4V57.72H32.76V60.77C32.76 62.32 33.36 63.25 35.08 63.25C35.71 63.25 36.44 63.0499 36.9 62.7299L36.48 61.4799C36.05 61.7299 35.57 61.86 35.19 61.86C34.46 61.86 34.22 61.41 34.22 60.74V57.72H36.6V56.39H36.61ZM49.02 56.22C48.18 56.22 47.63 56.61 47.26 57.2V56.39H45.82V63.08H47.27V59.33C47.27 58.22 47.75 57.61 48.7 57.61C48.99 57.61 49.3 57.65 49.61 57.78L50.06 56.41C49.74 56.28 49.32 56.2299 49.02 56.2299V56.22ZM30.26 56.92C29.56 56.46 28.6 56.22 27.53 56.22C25.84 56.22 24.75 57.03 24.75 58.36C24.75 59.45 25.56 60.12 27.06 60.33L27.75 60.43C28.55 60.54 28.93 60.75 28.93 61.13C28.93 61.65 28.4 61.94 27.41 61.94C26.42 61.94 25.68 61.62 25.19 61.24L24.5 62.3699C25.3 62.9599 26.3 63.24 27.4 63.24C29.33 63.24 30.45 62.33 30.45 61.06C30.45 59.88 29.57 59.27 28.11 59.06L27.42 58.96C26.79 58.88 26.29 58.75 26.29 58.3C26.29 57.81 26.77 57.52 27.56 57.52C28.41 57.52 29.24 57.84 29.64 58.09L30.27 56.91L30.26 56.92ZM69.24 56.22C68.4 56.22 67.86 56.61 67.48 57.2V56.39H66.04V63.08H67.49V59.33C67.49 58.22 67.97 57.61 68.92 57.61C69.21 57.61 69.52 57.65 69.83 57.78L70.28 56.41C69.96 56.28 69.54 56.2299 69.24 56.2299V56.22ZM50.49 59.7299C50.49 61.7599 51.9 63.24 54.06 63.24C55.07 63.24 55.74 63.02 56.47 62.44L55.77 61.2599C55.22 61.6499 54.65 61.86 54.02 61.86C52.86 61.85 52.01 61.01 52.01 59.72C52.01 58.43 52.86 57.59 54.02 57.58C54.65 57.58 55.22 57.79 55.77 58.18L56.47 57C55.74 56.43 55.07 56.2 54.06 56.2C51.91 56.2 50.49 57.68 50.49 59.71V59.7299ZM64.12 59.7299V56.39H62.67V57.2C62.21 56.6 61.51 56.22 60.56 56.22C58.69 56.22 57.22 57.6899 57.22 59.7299C57.22 61.7699 58.69 63.24 60.56 63.24C61.51 63.24 62.21 62.8599 62.67 62.2599V63.07H64.12V59.7299ZM58.71 59.7299C58.71 58.55 59.48 57.59 60.74 57.59C62 57.59 62.75 58.5099 62.75 59.7299C62.75 60.95 61.94 61.8699 60.74 61.8699C59.54 61.8699 58.71 60.9 58.71 59.7299ZM41.15 56.22C39.19 56.22 37.82 57.65 37.82 59.7299C37.82 61.8099 39.25 63.24 41.25 63.24C42.26 63.24 43.18 62.99 43.99 62.3L43.28 61.22C42.72 61.67 42.01 61.92 41.34 61.92C40.4 61.92 39.55 61.49 39.34 60.28H44.31C44.32 60.1 44.34 59.92 44.34 59.72C44.33 57.64 43.04 56.21 41.16 56.21L41.15 56.22ZM41.12 57.52C42.06 57.52 42.66 58.11 42.81 59.14H39.34C39.49 58.17 40.08 57.52 41.12 57.52ZM77.62 59.7299V53.7H76.16V57.2C75.7 56.6 75 56.22 74.05 56.22C72.18 56.22 70.71 57.6899 70.71 59.7299C70.71 61.7699 72.18 63.24 74.05 63.24C75 63.24 75.7 62.8599 76.16 62.2599V63.07H77.62V59.7299ZM72.21 59.7299C72.21 58.55 72.98 57.59 74.24 57.59C75.5 57.59 76.25 58.5099 76.25 59.7299C76.25 60.95 75.44 61.8699 74.24 61.8699C73.04 61.8699 72.21 60.9 72.21 59.7299ZM23.08 59.7299V56.39H21.62V57.2C21.16 56.6 20.46 56.22 19.51 56.22C17.64 56.22 16.17 57.6899 16.17 59.7299C16.17 61.7699 17.64 63.24 19.51 63.24C20.46 63.24 21.16 62.8599 21.62 62.2599V63.07H23.08V59.7299ZM17.67 59.7299C17.67 58.55 18.44 57.59 19.7 57.59C20.96 57.59 21.71 58.5099 21.71 59.7299C21.71 60.95 20.9 61.8699 19.7 61.8699C18.5 61.8699 17.67 60.9 17.67 59.7299ZM80.06 62.1C80.15 62.1 80.24 62.12 80.32 62.15C80.4 62.18 80.47 62.23 80.54 62.29C80.6 62.35 80.65 62.42 80.68 62.5C80.71 62.58 80.73 62.6699 80.73 62.7599C80.73 62.8499 80.71 62.94 80.68 63.02C80.64 63.1 80.6 63.1699 80.54 63.2299C80.48 63.29 80.41 63.3399 80.32 63.3699C80.24 63.4099 80.15 63.42 80.06 63.42C79.97 63.42 79.88 63.3999 79.79 63.3699C79.71 63.3299 79.63 63.29 79.57 63.2299C79.51 63.1699 79.46 63.1 79.43 63.02C79.39 62.94 79.38 62.8499 79.38 62.7599C79.38 62.6699 79.4 62.58 79.43 62.5C79.47 62.42 79.51 62.35 79.57 62.29C79.63 62.23 79.7 62.18 79.79 62.15C79.87 62.12 79.96 62.1 80.06 62.1ZM80.06 63.28C80.13 63.28 80.2 63.27 80.26 63.24C80.32 63.21 80.38 63.18 80.42 63.13C80.47 63.08 80.5 63.03 80.53 62.97C80.56 62.91 80.57 62.84 80.57 62.77C80.57 62.7 80.56 62.63 80.53 62.57C80.5 62.51 80.47 62.45 80.42 62.41C80.37 62.36 80.32 62.33 80.26 62.3C80.2 62.27 80.13 62.2599 80.06 62.2599C79.99 62.2599 79.92 62.27 79.86 62.3C79.8 62.33 79.74 62.36 79.69 62.41C79.64 62.46 79.61 62.51 79.58 62.57C79.55 62.63 79.54 62.7 79.54 62.77C79.54 62.84 79.55 62.91 79.58 62.97C79.61 63.03 79.64 63.09 79.69 63.13C79.74 63.18 79.79 63.21 79.86 63.24C79.92 63.27 79.99 63.28 80.06 63.28ZM80.1 62.45C80.18 62.45 80.24 62.47 80.28 62.5C80.32 62.54 80.34 62.58 80.34 62.64C80.34 62.69 80.32 62.73 80.29 62.77C80.26 62.8 80.21 62.82 80.14 62.83L80.34 63.06H80.18L79.99 62.83H79.93V63.06H79.8V62.44H80.09L80.1 62.45ZM79.95 62.57V62.7299H80.1C80.1 62.7299 80.16 62.73 80.18 62.71C80.2 62.7 80.21 62.68 80.21 62.65C80.21 62.62 80.2 62.6 80.18 62.59C80.16 62.58 80.13 62.57 80.1 62.57H79.95Z" fill="black"/>
<path d="M51.82 5.39001H29.76V45.04H51.82V5.39001Z" fill="#F16122"/>
<path d="M31.16 25.21C31.16 17.17 34.93 10 40.79 5.39C36.5 2.01 31.09 0 25.21 0C11.29 0 0 11.29 0 25.21C0 39.13 11.29 50.42 25.21 50.42C31.09 50.42 36.5 48.41 40.79 45.03C34.93 40.41 31.16 33.25 31.16 25.21Z" fill="#E91D25"/>
<path d="M81.58 25.21C81.58 39.13 70.29 50.42 56.37 50.42C50.49 50.42 45.08 48.41 40.79 45.03C46.65 40.41 50.42 33.25 50.42 25.21C50.42 17.17 46.65 10 40.79 5.39C45.08 2.01 50.49 0 56.37 0C70.29 0 81.58 11.29 81.58 25.21Z" fill="#F79E1D"/>
<path d="M79.1801 40.84V40.03H79.5101V39.86H78.6801V40.03H79.0101V40.84H79.19H79.1801ZM80.8 40.84V39.86H80.5401L80.25 40.53L79.9601 39.86H79.7V40.84H79.8801V40.1L80.16 40.74H80.3501L80.6301 40.1V40.84H80.81H80.8Z" fill="#F79E1D"/>
</svg>
