<svg xmlns="http://www.w3.org/2000/svg" width="239" height="161" viewBox="0 0 239 161">
    <g fill="none" fill-rule="evenodd">
        <g fill-rule="nonzero">
            <g transform="translate(-18 -39) translate(18 39)">
                <path fill="#2F2E41" d="M190.391 70.855l.71-5.686c.524-4.208 4.362-7.194 8.57-6.67 4.208.526 7.194 4.363 6.67 8.571l-.71 5.687c-.071.565-.586.965-1.151.896l-13.193-1.646c-.565-.071-.966-.586-.896-1.152z"/>
                <circle cx="196.71" cy="66.922" r="5.63" fill="#FFB8B8"/>
                <path fill="#2F2E41" d="M189.241 65.399c.419-3.327 3.452-5.687 6.78-5.276l1.137.142c3.327.419 5.687 3.452 5.276 6.78l-.014.114-2.404-.3-.533-2.398-.45 2.275-1.243-.155-.269-1.21-.227 1.148-8.067-1.006.014-.114z"/>
                <path fill="#FFB8B8" d="M169.174 87.005c.349.684.982 1.179 1.73 1.35.748.173 1.534.004 2.146-.459l5.113 2.996 2.579-2.664-7.281-4.128c-.865-1-2.34-1.193-3.434-.452-1.094.742-1.46 2.184-.853 3.357z"/>
                <path fill="#3F3D56" d="M185.934 92.388c-3.772 0-10.41-1.689-10.777-1.783l-.116-.03 1.045-5.289 10.138 2.003 5.507-7.756 6.323-.643-.176.232c-.082.109-8.233 10.838-9.502 12.638-.32.454-1.234.628-2.442.628z"/>
                <path fill="#3F3D56" d="M186.945 112.239l-.15-.072c-.033-.016-3.238-1.574-4.897-4.617-1.652-3.03 6.08-15.877 6.622-16.768l.008-4.08 2.782-7.51 3.547-2.006-3.046 7.107-4.866 27.946z"/>
                <path fill="#FFB8B8" d="M183.391 156.091L180 156.091 178.387 143.012 183.391 143.012z"/>
                <path fill="#2F2E41" d="M184.256 159.377h-10.934v-.138c0-2.35 1.906-4.255 4.256-4.256h6.678v4.394z"/>
                <path fill="#FFB8B8" d="M219.811 153.119L216.589 154.175 210.984 142.249 215.739 140.691z"/>
                <path fill="#2F2E41" d="M221.656 155.973l-10.39 3.404-.042-.13c-.732-2.234.485-4.638 2.718-5.37l6.346-2.079 1.368 4.175zM213.246 150.981l-9.666-16.137-8.16-17.24-7.342 15.229-2.917 19.724-10.23.142.04-.16 15.655-62.202 12.26 1.832-.558 8.093.333.473c2.77 3.934 5.633 8.002 3.99 12.387l4.656 13.825 10.307 23.02-8.368 1.014z"/>
                <path fill="#196AE5" d="M191.186 103.818c-1.776 0-3.803-2.028-2.752-5.491l-.068-.05 2.526-11.158c-2.204-3.153.702-5.754.974-5.986l1.387-2.497 6.12-3.882 3.097 25.73-.045.044c-2.237 2.14-9.749 3.29-11.239 3.29z"/>
                <path fill="#3F3D56" d="M203.72 109.624c-.243.004-.485-.022-.722-.076-.238-.06-.624-.363-1.22-2.302-2.367-7.707-5.162-30.899-3.131-33.168l.046-.052 3.335.555c.277-.204 1.731-1.22 3.073-1.043.559.07 1.063.368 1.394.824l.023.03 1.062 15.11 3.891 17.783-.093.043c-.227.103-5.085 2.296-7.657 2.296z"/>
                <path fill="#FFB8B8" d="M201.478 103.718c.767-.025 1.484-.39 1.957-.994.472-.604.653-1.387.493-2.138l4.881-3.362-1.32-3.464-6.825 4.844c-1.271.36-2.072 1.614-1.864 2.919.207 1.305 1.358 2.248 2.678 2.195z"/>
                <path fill="#3F3D56" d="M207.199 99.918l-4.348-3.188 6.111-8.333-4.69-8.276 2.099-6 .135.259c.063.12 6.326 12.05 7.419 13.963 1.136 1.989-6.332 11.096-6.65 11.482l-.076.093z"/>
                <path fill="#E6E6E6" d="M109.407 137.424l-3.7-1.558-2.538-18.548H69.368l-2.751 18.473-3.31 1.655c-.327.163-.498.529-.414.884.084.354.4.605.765.605h45.444c.374 0 .697-.264.77-.63.075-.367-.12-.735-.465-.88z"/>
                <path fill="#CCC" d="M169.474 119.786H3.434c-1.814-.004-3.282-1.476-3.282-3.29V93.082h172.604v23.414c0 1.814-1.468 3.286-3.282 3.29z"/>
                <path fill="#3F3D56" d="M172.93 104.148H0V3.965C.003 1.776 1.777.002 3.966 0h164.998c2.19.002 3.963 1.776 3.966 3.965v100.183z"/>
                <path fill="#FFF" d="M162.601 96.877H10.328c-1.687-.002-3.055-1.37-3.057-3.057V10.328c.002-1.687 1.37-3.055 3.057-3.057h152.273c1.688.002 3.056 1.37 3.057 3.057V93.82c-.001 1.688-1.37 3.055-3.057 3.057z"/>
                <path fill="#CCC" d="M129.17 139.128H43.606c-.18.004-.34-.114-.39-.287-.031-.116-.006-.24.067-.335.073-.096.187-.151.307-.152h85.548c.19-.006.36.12.41.303.025.115-.003.235-.076.326-.074.092-.185.145-.302.145z"/>
                <path fill="#F2F2F2" d="M124.21 20.769H160.976V48.857H124.21z"/>
                <path fill="#FFF" d="M126.037 22.165H159.149V47.462H126.037z"/>
                <path fill="#3F3D56" d="M143.174 40.929h.013c4.652-.244 8.315-4.06 8.367-8.718.052-4.658-3.524-8.555-8.169-8.902-.056-.005-.111.014-.152.052-.042.038-.065.09-.066.146l-.193 17.218c0 .111.089.202.2.204z"/>
                <path fill="#E6E6E6" d="M136.25 26.156c.07 0 .135.028.183.078l5.927 6.061c.049.05.075.115.074.184l-.092 8.239c0 .071-.031.14-.084.187-.053.049-.124.074-.195.068-3.362-.251-6.292-2.383-7.565-5.504-1.273-3.121-.67-6.694 1.555-9.225.048-.055.116-.086.188-.088h.01z"/>
                <path fill="#196AE5" d="M142.278 23.238c.066.001.13.027.177.073.052.049.08.118.08.19l-.083 7.433c-.002.104-.066.198-.163.237-.097.039-.208.016-.281-.06l-5.173-5.289c-.05-.05-.076-.12-.073-.19.002-.072.034-.138.087-.185 1.505-1.325 3.412-2.103 5.413-2.209h.016zM139.613 44.499c-.007.641-.4 1.215-.995 1.454-.595.239-1.276.095-1.724-.363-.448-.459-.576-1.142-.324-1.732.252-.59.834-.97 1.476-.962.875.01 1.576.728 1.567 1.603z"/>
                <path fill="#3F3D56" d="M144.143 44.55c-.007.641-.4 1.215-.995 1.454-.595.238-1.275.095-1.724-.363-.448-.459-.576-1.143-.324-1.732.252-.59.834-.97 1.476-.963.875.011 1.576.728 1.567 1.604z"/>
                <path fill="#E6E6E6" d="M148.674 44.6c-.01.876-.728 1.578-1.604 1.568-.875-.01-1.577-.727-1.568-1.603.01-.876.728-1.578 1.604-1.568.875.011 1.576.728 1.568 1.604z"/>
                <path fill="#F2F2F2" d="M123.823 53.278H160.589V81.366H123.823z"/>
                <path fill="#FFF" d="M125.65 54.673H158.762V79.97H125.65z"/>
                <circle cx="131.268" cy="61.613" r="1.375" fill="#3F3D56"/>
                <path fill="#3F3D56" d="M153.358 60.543c.333 0 .642.177.809.466.166.288.166.644 0 .933-.167.289-.476.466-.81.466h-14.459c-.515 0-.932-.418-.932-.933 0-.515.417-.932.932-.932h14.46m0-.229h-14.46c-.415 0-.799.221-1.006.58-.208.36-.208.803 0 1.162.207.36.591.58 1.006.58h14.46c.415 0 .799-.22 1.006-.58.208-.36.208-.802 0-1.162-.207-.359-.591-.58-1.006-.58z"/>
                <path fill="#196AE5" d="M147.652 62.636h-10.885c-.64 0-1.16-.52-1.16-1.16 0-.642.52-1.162 1.16-1.162h10.885c.641 0 1.161.52 1.161 1.161s-.52 1.161-1.16 1.161z"/>
                <circle cx="131.268" cy="67.322" r="1.375" fill="#3F3D56"/>
                <path fill="#3F3D56" d="M153.358 66.252c.333 0 .642.177.809.466.166.288.166.644 0 .933-.167.288-.476.466-.81.466h-14.459c-.515 0-.932-.418-.932-.933 0-.515.417-.932.932-.932h14.46m0-.229h-14.46c-.64 0-1.16.52-1.16 1.161s.52 1.16 1.16 1.16h14.46c.64 0 1.16-.519 1.16-1.16 0-.64-.52-1.16-1.16-1.16z"/>
                <path fill="#196AE5" d="M151.763 68.345h-14.996c-.64 0-1.16-.52-1.16-1.16 0-.642.52-1.162 1.16-1.162h14.996c.64 0 1.16.52 1.16 1.161s-.52 1.16-1.16 1.16z"/>
                <circle cx="131.268" cy="73.031" r="1.375" fill="#3F3D56"/>
                <path fill="#3F3D56" d="M153.358 71.96c.333 0 .642.178.809.466.166.29.166.645 0 .934-.167.288-.476.466-.81.465h-14.459c-.515 0-.932-.417-.932-.932 0-.515.417-.932.932-.932h14.46m0-.229h-14.46c-.64 0-1.16.52-1.16 1.161s.52 1.16 1.16 1.16h14.46c.64 0 1.16-.519 1.16-1.16 0-.641-.52-1.16-1.16-1.16z"/>
                <path fill="#196AE5" d="M142.857 74.054h-6.09c-.415 0-.799-.22-1.006-.58-.208-.36-.208-.802 0-1.162.207-.36.591-.58 1.006-.58h6.09c.64.001 1.159.52 1.159 1.161 0 .64-.519 1.16-1.16 1.16z"/>
                <path fill="#F2F2F2" d="M12.979 25.739H115.695V78.381H12.979z"/>
                <path fill="#FFF" d="M16.403 28.354H112.27199999999999V75.765H16.403z"/>
                <path fill="#3F3D56" d="M100.382 68.532H30.496c-.12 0-.219-.098-.219-.219V34.817c0-.121.098-.219.219-.219.12 0 .219.098.219.219v33.278h69.667c.121 0 .22.098.22.218 0 .121-.099.22-.22.22z"/>
                <path fill="#196AE5" d="M45.428 66.126H39.07c-.358 0-.649-.29-.65-.649v-8.762c.001-.359.292-.65.65-.65h6.357c.358 0 .648.291.649.65v8.762c0 .358-.291.649-.65.65zM57.02 66.126h-6.357c-.358 0-.649-.29-.65-.649V48.404c.001-.359.292-.65.65-.65h6.356c.359 0 .65.291.65.65v17.073c0 .358-.291.649-.65.65zM68.611 66.126h-6.356c-.359 0-.65-.29-.65-.649v-8.762c0-.359.291-.65.65-.65h6.356c.359 0 .649.291.65.65v8.762c-.001.358-.291.649-.65.65zM80.203 66.126h-6.357c-.35.008-.64-.27-.649-.62V45.093c.009-.35.3-.627.65-.62h6.356c.35-.007.64.27.65.62v20.413c-.01.35-.3.628-.65.62zM91.795 66.126h-6.357c-.358 0-.649-.29-.649-.649v-26.26c0-.358.29-.648.65-.649h6.356c.358 0 .648.291.649.65v26.259c0 .358-.29.649-.65.65z"/>
                <circle cx="42.249" cy="52.129" r="1.312" fill="#3F3D56"/>
                <circle cx="53.841" cy="43.599" r="1.312" fill="#3F3D56"/>
                <circle cx="65.433" cy="52.129" r="1.312" fill="#3F3D56"/>
                <circle cx="77.025" cy="39.443" r="1.312" fill="#3F3D56"/>
                <circle cx="88.616" cy="34.632" r="1.312" fill="#3F3D56"/>
                <path fill="#3F3D56" d="M65.46 52.423L53.841 43.72 42.38 52.304 42.118 51.954 53.841 43.173 65.405 51.835 76.897 39.259 76.943 39.24 88.535 34.57 88.698 34.976 77.152 39.628z"/>
                <path fill="#CCC" d="M238.741 160.11h-96.607c-.14 0-.254-.114-.254-.254s.114-.254.254-.254h96.607c.14 0 .254.114.254.254s-.114.253-.254.253z"/>
            </g>
        </g>
    </g>
</svg>
