<svg width="273" height="191" viewBox="0 0 273 191" fill="none" xmlns="http://www.w3.org/2000/svg">
<g clip-path="url(#clip0)">
<path d="M81.1988 128.38C79.8774 129.677 79.1211 131.443 79.0942 133.294C79.0674 135.146 79.7722 136.933 81.0554 138.268L125.458 184.242C126.104 184.91 126.876 185.444 127.73 185.811C128.583 186.178 129.502 186.372 130.431 186.381C131.36 186.39 132.282 186.214 133.142 185.863C134.003 185.513 134.785 184.994 135.444 184.338L270.936 49.3806C271.677 48.6432 272.243 47.7497 272.593 46.7654C272.944 45.7811 273.07 44.7309 272.962 43.6915C272.855 42.6521 272.517 41.6499 271.972 40.7581C271.428 39.8663 270.691 39.1075 269.816 38.5372L216.538 3.82191C215.205 2.94471 213.612 2.55142 212.025 2.70773C210.437 2.86404 208.952 3.56048 207.816 4.68074L81.1988 128.38Z" fill="#3F3D56"/>
<path d="M271.866 40.5872C271.597 41.0002 271.285 41.3838 270.937 41.7319L135.762 179.239C135.104 179.895 134.321 180.414 133.461 180.764C132.6 181.115 131.679 181.291 130.749 181.282C129.82 181.273 128.902 181.079 128.048 180.712C127.195 180.345 126.423 179.811 125.777 179.143L80.4184 131.256C80.1093 130.935 79.8318 130.585 79.5895 130.211C77.8501 132.888 78.7496 135.88 81.0555 138.268L125.458 184.242C126.104 184.91 126.876 185.444 127.73 185.811C128.584 186.178 129.502 186.372 130.431 186.381C131.36 186.39 132.282 186.214 133.142 185.863C134.003 185.513 134.785 184.994 135.444 184.338L270.937 49.3806C272.077 48.2442 272.792 46.75 272.961 45.1488C273.13 43.5476 272.743 41.9369 271.866 40.5872Z" fill="#B1B2D5"/>
<path d="M259.32 42.2502L253.807 38.7334C254.387 39.7687 254.601 40.9702 254.412 42.1423C254.223 43.3143 253.643 44.3879 252.766 45.188C251.889 45.9881 250.767 46.4677 249.583 46.5486C248.399 46.6296 247.223 46.3071 246.245 45.6337L210.565 21.0941C209.754 20.5372 209.116 19.7636 208.723 18.8614C208.33 17.9591 208.199 16.9646 208.343 15.9912C208.488 15.0178 208.903 14.1047 209.541 13.3558C210.18 12.607 211.015 12.0527 211.953 11.756L209.113 9.94407C208.744 9.70897 208.306 9.60736 207.872 9.65618C207.437 9.70501 207.033 9.90132 206.725 10.2124L86.6946 128.215C86.5155 128.397 86.3745 128.612 86.2798 128.849C86.1851 129.085 86.1386 129.338 86.1431 129.593C86.1476 129.848 86.203 130.1 86.306 130.333C86.4091 130.566 86.5576 130.776 86.743 130.951L130.335 173.443C130.697 173.784 131.176 173.97 131.673 173.963C132.17 173.957 132.644 173.757 132.996 173.406L259.642 45.2169C259.845 45.0147 260 44.7694 260.095 44.4993C260.19 44.2292 260.224 43.9411 260.193 43.6563C260.162 43.3715 260.068 43.0973 259.917 42.8539C259.765 42.6105 259.562 42.4042 259.32 42.2502Z" fill="white"/>
<path d="M120.786 102.159L157.608 136.89L245.191 50.3261L200.742 21.3837L120.786 102.159Z" fill="#E6E6E6"/>
<path d="M241.786 71.6893C242.029 71.9211 242.352 72.0504 242.688 72.0504C243.023 72.0504 243.346 71.9211 243.589 71.6893L251.248 64.0274C251.486 63.7881 251.62 63.4639 251.62 63.126C251.62 62.7881 251.486 62.4639 251.248 62.2246C251.005 61.9928 250.682 61.8635 250.347 61.8635C250.011 61.8635 249.688 61.9928 249.446 62.2246L241.786 69.8866C241.548 70.1259 241.414 70.45 241.414 70.7879C241.414 71.1259 241.548 71.45 241.786 71.6893Z" fill="#3F3D56"/>
<path d="M228.884 84.5967C229.123 84.8353 229.448 84.9693 229.785 84.9693C230.123 84.9693 230.447 84.8353 230.686 84.5967L238.346 76.9347C238.584 76.6955 238.718 76.3714 238.717 76.0336C238.717 75.6958 238.583 75.3719 238.344 75.133C238.105 74.8942 237.782 74.7599 237.444 74.7596C237.106 74.7594 236.782 74.8932 236.543 75.1317L228.884 82.7938C228.646 83.0331 228.512 83.3573 228.512 83.6953C228.512 84.0332 228.646 84.3574 228.884 84.5967Z" fill="#3F3D56"/>
<path d="M121.636 140.576C126.387 140.576 130.238 136.723 130.238 131.971C130.238 127.218 126.387 123.366 121.636 123.366C116.886 123.366 113.035 127.218 113.035 131.971C113.035 136.723 116.886 140.576 121.636 140.576Z" fill="#006BFF"/>
<path d="M204.905 186.916H22.0178V186.221H205.031L204.905 186.916Z" fill="#3F3D56"/>
<path d="M184.395 57.6159H93.4714V75.5744H184.395V57.6159Z" fill="#E6E6E6"/>
<path d="M184.395 29.2394H93.4714V47.1979H184.395V29.2394Z" fill="#E6E6E6"/>
<path d="M184.395 0.769531H93.4714V18.7281H184.395V0.769531Z" fill="#E6E6E6"/>
<path d="M95.4102 16.789H182.457V2.70868H95.4102V16.789Z" fill="white"/>
<path d="M95.4102 45.3213H182.457V31.241H95.4102V45.3213Z" fill="white"/>
<path d="M95.4099 73.6354H182.457V59.5552H95.4099V73.6354Z" fill="white"/>
<path d="M103.03 14.9964C105.992 14.9964 108.393 12.5948 108.393 9.63217C108.393 6.66959 105.992 4.26794 103.03 4.26794C100.069 4.26794 97.6682 6.66959 97.6682 9.63217C97.6682 12.5948 100.069 14.9964 103.03 14.9964Z" fill="#006BFF"/>
<path d="M168.775 7.5332H115.853V8.69934H168.775V7.5332Z" fill="#006BFF"/>
<path d="M168.775 10.5652H115.853V11.7314H168.775V10.5652Z" fill="#006BFF"/>
<path d="M103.03 43.6995C105.992 43.6995 108.393 41.2978 108.393 38.3352C108.393 35.3727 105.992 32.971 103.03 32.971C100.069 32.971 97.6682 35.3727 97.6682 38.3352C97.6682 41.2978 100.069 43.6995 103.03 43.6995Z" fill="#CCCCCC"/>
<path d="M168.775 36.2362H115.853V37.4023H168.775V36.2362Z" fill="#CCCCCC"/>
<path d="M168.775 39.2682H115.853V40.4343H168.775V39.2682Z" fill="#CCCCCC"/>
<path d="M103.03 72.076C105.992 72.076 108.393 69.6744 108.393 66.7118C108.393 63.7492 105.992 61.3475 103.03 61.3475C100.069 61.3475 97.6682 63.7492 97.6682 66.7118C97.6682 69.6744 100.069 72.076 103.03 72.076Z" fill="#CCCCCC"/>
<path d="M168.775 64.6129H115.853V65.779H168.775V64.6129Z" fill="#CCCCCC"/>
<path d="M168.775 67.6448H115.853V68.811H168.775V67.6448Z" fill="#CCCCCC"/>
<path d="M4.07826 189.031L6.42389 189.306C8.27666 190.424 10.4513 190.844 12.8598 190.759C13.196 190.749 13.5237 190.651 13.8104 190.475C14.0972 190.299 14.3331 190.052 14.4947 189.756C14.6349 189.498 14.7135 189.21 14.7244 188.916C14.7352 188.621 14.6781 188.329 14.5573 188.06C14.4366 187.791 14.2555 187.554 14.0282 187.367C13.8009 187.18 13.5335 187.048 13.2469 186.981L11.4646 186.566L7.16384 182.358L4.56931 177.661L0.800557 178.093L0.0159842 184.06C-0.083545 185.254 0.284508 186.439 1.04245 187.367C1.8004 188.294 2.88893 188.891 4.07826 189.031Z" fill="#2F2E41"/>
<path d="M40.6106 186.012L42.9096 186.553C44.623 187.874 46.7356 188.54 49.1381 188.73C49.4732 188.758 49.81 188.698 50.1149 188.556C50.4198 188.414 50.6824 188.195 50.8765 187.92C51.0453 187.679 51.1562 187.402 51.2005 187.111C51.2448 186.82 51.2213 186.523 51.132 186.242C51.0426 185.961 50.8897 185.705 50.6852 185.494C50.4807 185.282 50.2301 185.12 49.9529 185.021L48.2295 184.405L44.436 179.735L42.3934 174.772H38.6L37.1409 180.61C36.9061 181.785 37.1367 183.005 37.7841 184.013C38.4315 185.021 39.4449 185.737 40.6106 186.012Z" fill="#2F2E41"/>
<path d="M42.4953 175.102L38.2055 175.762L31.4407 141.596L19.7262 121.624L5.5367 179.724L0.256895 180.714C0.848935 147.996 -2.04073 106.805 4.54674 101.817L33.2557 105.118L45.7952 138.79L42.4953 175.102Z" fill="#2F2E41"/>
<path d="M21.7058 50.9792C27.1732 50.9792 31.6054 46.5453 31.6054 41.0757C31.6054 35.6062 27.1732 31.1723 21.7058 31.1723C16.2384 31.1723 11.8062 35.6062 11.8062 41.0757C11.8062 46.5453 16.2384 50.9792 21.7058 50.9792Z" fill="#FFB8B8"/>
<path d="M7.84668 56.2612L19.7263 58.2419L22.6963 47.6781L14.1165 45.0374L7.84668 56.2612Z" fill="#FFB8B8"/>
<path d="M2.89697 103.137L34.5758 106.108C32.0361 97.2738 29.7093 88.4705 31.6059 79.699C34.0144 71.8682 31.6897 67.2114 25.3361 63.5234L21.0463 53.9501L9.49675 52.6296C6.43821 57.5491 5.18709 63.3804 5.95819 69.1222C7.60386 81.6081 7.15945 93.1943 2.89697 103.137Z" fill="#196AE5"/>
<path d="M17.8132 29.8366C21.1942 29.603 25.1032 29.5385 25.5928 30.4294C29.0938 30.2656 32.143 31.4873 33.5494 34.3305C33.6695 34.5766 33.7342 34.8462 33.7389 35.12C33.7436 35.3939 33.6883 35.6655 33.5767 35.9157C33.4651 36.1659 33.3001 36.3885 33.0932 36.568C32.8864 36.7474 32.6427 36.8793 32.3793 36.9544C30.6032 37.4667 27.8961 38.1004 25.9209 37.898C21.8187 42.7227 23.5447 51.5225 27.5265 56.6634L23.9283 57.4012L17.1006 47.8892L19.255 58.3595L10.9462 59.719L8.0482 46.4131C7.4389 43.2547 7.59139 39.9965 8.49303 36.9089C8.58935 36.5971 8.70554 36.2917 8.84091 35.9948C9.64124 34.2535 10.898 32.7615 12.4777 31.6773C14.0575 30.593 15.9012 29.957 17.8132 29.8366Z" fill="#2F2E41"/>
<path d="M23.3562 113.041L23.1373 120.705C23.1071 121.761 23.4782 122.79 24.1759 123.583C24.8735 124.377 25.8458 124.877 26.897 124.982C27.5703 125.049 28.2499 124.952 28.8773 124.698C29.5047 124.445 30.0611 124.043 30.4987 123.526C30.9363 123.01 31.2419 122.395 31.3894 121.735C31.5368 121.074 31.5216 120.387 31.345 119.734L29.626 113.371L24.6762 86.3015L25.0061 70.456L14.4465 70.1259L16.4265 87.952L23.3562 113.041Z" fill="#FFB8B8"/>
<path d="M13.7864 71.7765C17.6122 70.3187 21.8402 70.3187 25.6659 71.7765L25.006 58.5719C25.006 57.1711 24.4497 55.8276 23.4595 54.8371C22.4694 53.8466 21.1265 53.2901 19.7262 53.2901C18.3259 53.2901 16.9829 53.8466 15.9928 54.8371C15.0026 55.8276 14.4464 57.1711 14.4464 58.5719L13.7864 71.7765Z" fill="#196AE5"/>
</g>
<defs>
<clipPath id="clip0">
<rect width="273" height="190" fill="white" transform="translate(0 0.769531)"/>
</clipPath>
</defs>
</svg>
