<svg width="113" height="50" viewBox="0 0 113 50" fill="none" xmlns="http://www.w3.org/2000/svg">
<path d="M35.07 0.0105028L1.47998 4.4905C1.47998 4.4905 0 4.6705 0 6.4505V38.3505C0 38.3505 0.200001 42.0805 4.47 42.0805H42.54C42.54 42.0805 45.93 41.2705 45.93 37.8705V11.5405C45.93 11.5405 46 7.8105 41.52 7.8105H4.81C4.81 7.8105 3.38999 7.5705 3.01999 6.0705C2.90999 5.4805 3.14999 5.4205 3.76999 5.4205H37.48V1.7905C37.48 1.7905 37.36 -0.159497 35.07 0.0105028Z" fill="#ED4C2F"/>
<path d="M23.6399 36.6705C20.8499 36.6705 18.7999 35.5405 15.7799 32.5405C15.2399 32.0105 15.2399 31.1405 15.7699 30.6005C16.2999 30.0605 17.1699 30.0605 17.7099 30.6005C20.8899 33.7505 22.3699 34.5305 24.9199 33.8405C26.3999 33.4405 27.7299 31.5505 27.7999 29.3905C27.8599 27.7105 26.6699 26.6105 24.2799 26.1305C19.9799 25.2705 17.4399 23.6205 16.7299 21.2405C16.1599 19.3205 16.9099 17.1705 18.7699 15.3505L18.8499 15.2805C22.8599 11.9305 27.5199 14.4205 29.4299 16.2205C29.9799 16.7405 30.0099 17.6105 29.4899 18.1605C28.9699 18.7105 28.0999 18.7405 27.5499 18.2205C27.3899 18.0705 23.7799 14.7905 20.6599 17.3605C19.5899 18.4205 19.1099 19.5705 19.3699 20.4605C19.7499 21.7505 21.6899 22.8105 24.8199 23.4405C30.1499 24.5105 30.5999 28.0305 30.5499 29.4905C30.4399 32.6805 27.7699 36.2505 25.2699 36.5705C24.6999 36.6405 24.1599 36.6805 23.6499 36.6805L23.6399 36.6705Z" fill="white"/>
<path d="M60.05 7.63055C59.51 7.30055 58.86 7.00055 58.1 6.79055C56.69 6.39055 55.66 5.87056 55.17 5.20056C54.73 4.62056 54.73 3.87056 55.26 2.92056C55.56 2.34056 56.27 1.98056 57.2 1.91056C58.16 1.84056 59.33 2.07056 60.55 2.69056C60.85 2.85056 61.23 2.72056 61.39 2.41056C61.55 2.11056 61.42 1.73056 61.11 1.57056C59.68 0.840555 58.27 0.560555 57.1 0.650555C55.74 0.750555 54.68 1.35056 54.15 2.31055C53.37 3.76056 53.42 4.94056 54.15 5.94056C54.83 6.83056 56.07 7.51056 57.76 7.98056C58.42 8.17056 58.98 8.42056 59.42 8.68056C60.08 9.08055 60.52 9.55055 60.73 10.0606C60.94 10.5306 60.96 11.0506 60.82 11.5606C60.75 11.8006 60.63 12.0506 60.49 12.2906C60.49 12.3206 60.46 12.3606 60.42 12.4106C59.91 13.1606 59.09 13.5406 58.1 13.5406C57 13.5406 55.66 13.1006 54.23 12.2306C54.02 12.1106 53.83 11.9906 53.65 11.8606C53.35 11.6706 52.9699 11.7606 52.7799 12.0306C52.5899 12.3306 52.68 12.7106 52.95 12.9006C53.18 13.0606 53.39 13.1806 53.54 13.3206C55.18 14.3106 56.73 14.8006 58.06 14.8006C59.49 14.8006 60.68 14.2406 61.43 13.1306C61.45 13.1006 61.4799 13.0306 61.5299 12.9606C61.7399 12.6306 61.9 12.2606 62 11.9106C62.23 11.1406 62.19 10.3206 61.86 9.57055C61.55 8.84056 60.95 8.16055 60.06 7.62055L60.05 7.63055Z" fill="#ED4C2F"/>
<path d="M69.6599 6.25051C69.0099 6.08051 68.2599 6.09051 67.4999 6.32051C66.7699 6.53051 66.0399 6.94051 65.3399 7.54051V1.24051C65.3399 0.910513 65.06 0.650513 64.71 0.650513C64.36 0.650513 64.08 0.910513 64.08 1.24051V14.2005C64.08 14.5305 64.36 14.7905 64.71 14.7905C65.06 14.7905 65.3399 14.5305 65.3399 14.2005V9.35051C65.3399 9.35051 65.3599 9.33051 65.3699 9.32051C66.1499 8.36051 67.0299 7.77051 67.8599 7.51051C68.3999 7.35051 68.9099 7.34051 69.3399 7.46051C69.7599 7.58051 70.09 7.81051 70.33 8.14051C70.57 8.49051 70.71 8.96051 70.71 9.55051V14.1905C70.71 14.5405 70.9899 14.8205 71.3399 14.8205C71.6899 14.8205 71.9699 14.5405 71.9699 14.1905V9.55051C71.9699 8.70051 71.7399 7.98051 71.3399 7.42051C70.9199 6.83051 70.33 6.44051 69.65 6.25051H69.6599Z" fill="#ED4C2F"/>
<path d="M78.14 6.13049C76.95 6.13049 75.8599 6.62049 75.0699 7.40049C74.2899 8.18049 73.7999 9.27049 73.7999 10.4705C73.7999 11.6705 74.2899 12.7505 75.0699 13.5405C75.8499 14.3205 76.94 14.8105 78.14 14.8105C79.34 14.8105 80.42 14.3205 81.21 13.5405C82 12.7605 82.4799 11.6705 82.4799 10.4705C82.4799 9.27049 81.99 8.19049 81.21 7.40049C80.43 6.61049 79.34 6.13049 78.14 6.13049ZM80.3399 12.6705C79.7599 13.2305 79 13.5805 78.14 13.5805C77.28 13.5805 76.4999 13.2305 75.9399 12.6705C75.3799 12.1105 75.0299 11.3305 75.0299 10.4705C75.0299 9.61049 75.3799 8.83049 75.9399 8.27049C76.5199 7.71049 77.28 7.36049 78.14 7.36049C79 7.36049 79.7799 7.71049 80.3399 8.27049C80.8999 8.83049 81.2499 9.61049 81.2499 10.4705C81.2499 11.3305 80.8999 12.1105 80.3399 12.6705Z" fill="#ED4C2F"/>
<path d="M88.72 6.13049C87.52 6.13049 86.44 6.62049 85.65 7.40049C85.6 7.43049 85.56 7.49049 85.51 7.54049V6.76049C85.51 6.41049 85.23 6.13049 84.88 6.13049C84.53 6.13049 84.25 6.41049 84.25 6.76049V19.1105C84.25 19.4605 84.53 19.7405 84.88 19.7405C85.23 19.7405 85.51 19.4605 85.51 19.1105V13.4105C85.56 13.4405 85.6 13.5005 85.65 13.5505C86.43 14.3305 87.52 14.8205 88.72 14.8205C89.92 14.8205 91 14.3305 91.79 13.5505C92.58 12.7705 93.06 11.6805 93.06 10.4805C93.06 9.28049 92.57 8.20049 91.79 7.41049C91.01 6.62049 89.92 6.14049 88.72 6.14049V6.13049ZM90.9 12.6705C90.32 13.2305 89.56 13.5805 88.7 13.5805C87.84 13.5805 87.06 13.2305 86.5 12.6705C85.94 12.1105 85.59 11.3305 85.59 10.4705C85.59 9.61049 85.94 8.83049 86.5 8.27049C87.08 7.71049 87.84 7.36049 88.7 7.36049C89.56 7.36049 90.34 7.71049 90.9 8.27049C91.46 8.83049 91.81 9.61049 91.81 10.4705C91.81 11.3205 91.46 12.1105 90.9 12.6705Z" fill="#ED4C2F"/>
<path d="M101.72 7.28049C101 6.55049 100.03 6.13049 98.96 6.13049C97.89 6.13049 96.9 6.53049 96.2 7.28049C94.7 8.90049 94.72 10.6505 95.31 12.4105C95.57 13.2105 96.13 13.7905 96.78 14.2105C97.43 14.6305 98.21 14.8405 99.1 14.8205C99.97 14.8005 100.95 14.5905 102 14.1605C102.31 14.0205 102.47 13.6505 102.33 13.3405C102.19 13.0305 101.82 12.8705 101.51 13.0105C100.6 13.3905 99.78 13.5905 99.09 13.5905C98.44 13.5905 97.89 13.4505 97.45 13.1705C97.03 12.8905 96.7 12.4905 96.47 11.9505C96.35 11.6005 96.24 11.2205 96.19 10.8005H101.96C102.27 10.8005 103.3 10.8705 102.76 9.11049C102.55 8.48049 102.31 7.89049 101.71 7.30049L101.72 7.28049ZM96.26 9.51049C96.42 8.99049 96.71 8.53049 97.08 8.17049C97.59 7.68049 98.25 7.39049 98.96 7.39049C99.67 7.39049 100.34 7.69049 100.84 8.17049C101.21 8.54049 101.49 8.99049 101.68 9.51049H96.26Z" fill="#ED4C2F"/>
<path d="M112.28 9.1005C112.07 8.4705 111.83 7.8805 111.23 7.2905C110.51 6.5605 109.54 6.1405 108.47 6.1405C107.4 6.1405 106.41 6.5405 105.71 7.2905C104.21 8.9105 104.23 10.6605 104.82 12.4205C105.08 13.2205 105.64 13.8005 106.29 14.2205C106.94 14.6405 107.72 14.8505 108.61 14.8305C109.48 14.8105 110.46 14.6005 111.51 14.1705C111.82 14.0305 111.98 13.6605 111.84 13.3505C111.7 13.0405 111.33 12.8805 111.02 13.0205C110.11 13.4005 109.29 13.6005 108.6 13.6005C107.95 13.6005 107.4 13.4605 106.96 13.1805C106.54 12.9005 106.21 12.5005 105.98 11.9605C105.86 11.6105 105.75 11.2305 105.7 10.8105H111.47C111.78 10.8105 112.81 10.8805 112.27 9.1205L112.28 9.1005ZM105.77 9.5205C105.93 9.0005 106.22 8.5405 106.59 8.1805C107.1 7.6905 107.76 7.4005 108.47 7.4005C109.18 7.4005 109.85 7.7005 110.35 8.1805C110.72 8.5505 111 9.0005 111.19 9.5205H105.77Z" fill="#ED4C2F"/>
<path d="M62.13 17.9305H53.1V42.0905H56.76V34.8805H62.52C64.45 34.8805 66.37 34.4105 68.03 33.4305C70.01 32.2605 71.98 30.2005 71.98 26.6405C71.98 23.3005 70.24 21.1805 68.4 19.8705C66.56 18.5605 64.36 17.9405 62.13 17.9405V17.9305ZM63.28 31.0105H56.76V21.5405H62.64C62.74 21.5405 62.84 21.5405 62.94 21.5605C63.83 21.6605 67.75 22.3405 67.75 26.5305C67.75 31.0105 63.28 31.0105 63.28 31.0105Z" fill="#ED4C2F"/>
<path d="M86.5001 24.9206V26.6206C85.0201 25.4106 83.1201 24.6906 81.0601 24.6906C76.3001 24.6906 72.42 28.5606 72.42 33.3306C72.42 38.1006 76.3001 41.9706 81.0601 41.9706C83.1201 41.9706 85.0101 41.2506 86.5001 40.0406V41.9706H90.16V24.9206H86.5001ZM81.0601 38.7606C78.0601 38.7606 75.6201 36.3306 75.6201 33.3206C75.6201 30.3106 78.0601 27.8906 81.0601 27.8906C84.0601 27.8906 86.4901 30.3206 86.5001 33.3206C86.5001 36.3306 84.0701 38.7606 81.0601 38.7606Z" fill="#ED4C2F"/>
<path d="M91.8099 24.6805H96.71L102.46 35.6905L108.01 24.6805H112.44L99.2499 49.2205H94.9399L99.9699 40.1205L91.8099 24.6805Z" fill="#ED4C2F"/>
</svg>
