<svg width="75" height="75" viewBox="0 0 75 75" fill="none" xmlns="http://www.w3.org/2000/svg">
<path d="M59.3 0H15.08C6.77 0 0 6.77 0 15.08V59.3C0 67.62 6.77 74.38 15.08 74.38H59.3C67.61 74.38 74.38 67.62 74.38 59.3V15.08C74.38 6.77 67.61 0 59.3 0Z" fill="#0F61A8"/>
<path d="M29.4701 30.78H25.6201C24.4901 30.78 23.0301 31.58 22.6101 32.64L23.0001 30.6H18.2901L16.2001 42.32H20.9101L22.2101 34.9H27.2801C27.2801 34.9 26.6301 38.58 26.3401 40.22C26.0501 41.86 27.1701 42.27 27.7201 42.27H30.1801L31.7901 33.15C31.6601 31.85 30.7701 30.78 29.4701 30.78Z" fill="white"/>
<path d="M14.89 30.61L14.01 35.63L17.59 30.61H14.89Z" fill="white"/>
<path d="M20.48 12.23H4.71003L4.03003 16.12H9.53003L7.33003 28.64H12.08L14.29 16.12H19.79L20.48 12.23Z" fill="white"/>
<path d="M23.7401 24.8L24.4301 20.88H20.2101L19.5201 24.8H23.7401ZM17.0801 28.64C15.7801 28.64 14.9001 27.57 15.1301 26.26L16.3401 19.4C16.5701 18.1 17.8301 17.03 19.1301 17.03H26.8601C28.1701 17.03 29.0501 18.1 28.8101 19.4L27.6001 26.26C27.3701 27.57 26.1101 28.64 24.8101 28.64H17.0801Z" fill="white"/>
<path d="M48.1801 24.8L48.8801 20.88H55.0001L55.6801 17.03H47.8101C46.5001 17.03 45.2401 18.1 45.0101 19.4L43.8001 26.26C43.5701 27.57 44.4501 28.63 45.7601 28.63H53.4101L54.0801 24.79H48.1801V24.8Z" fill="white"/>
<path d="M38.56 24.8H33.38L34.74 17.04H30.61L28.99 26.27C28.76 27.58 29.64 28.64 30.94 28.64H34.96C36.27 28.64 37.33 27.87 38.18 26.86C38.18 26.86 38.64 28.21 39.3 28.51C39.97 28.82 41.98 28.74 41.98 28.74L44.05 17.04H39.92L38.55 24.8H38.56Z" fill="white"/>
<path d="M68.32 17.1H64.47C63.34 17.1 62.24 17.9 61.82 18.96L62.93 12.65H58.59L55.77 28.64H60.12L61.42 21.22H66.13C66.13 21.22 65.49 24.89 65.2 26.54C64.91 28.18 66.03 28.58 66.57 28.58H68.67L70.28 19.46C70.51 18.15 69.63 17.09 68.32 17.09" fill="white"/>
<path d="M52.84 46.23C51.09 46.23 49.9 44.78 50.21 43.03L51.83 33.81C52.14 32.05 53.83 30.61 55.59 30.61H65.42C67.17 30.61 68.36 32.05 68.05 33.81L66.42 43.03C66.11 44.78 64.41 46.23 62.66 46.23H52.82H52.84ZM62 41.92L63.24 34.92H56.27L55.03 41.92H62Z" fill="white"/>
<path d="M43.31 41.92H36.34L37.57 34.92H48.88L49.63 30.61H36.91C35.15 30.61 33.46 32.05 33.15 33.81L31.52 43.03C31.21 44.78 32.39 46.23 34.15 46.23H43.99C45.75 46.23 47.45 44.78 47.75 43.03L48.75 37.37H44.12L43.32 41.92H43.31Z" fill="white"/>
<path d="M36.35 53.58L31.82 62.92H28.95L28.61 57.27L25.86 62.92H22.98L22.42 53.58H24.47L24.83 60.9L28.35 53.58H30.43L30.78 60.9L34.3 53.58H36.35Z" fill="#F6D509"/>
<path d="M44.9 62.92H42.91L44.89 53.58H46.88L44.9 62.92Z" fill="#F6D509"/>
<path d="M48.1901 62.92H46.1801L48.1701 53.58H50.1601L48.1901 62.92Z" fill="#F6D509"/>
<path d="M61.98 62.92H60.37C59.63 62.92 59.11 62.85 58.82 62.7C58.53 62.55 58.38 62.26 58.38 61.81C58.38 61.56 58.42 61.27 58.49 60.93L60.05 53.58H62.05L61.55 55.9H63.48L63.11 57.59H61.21L60.64 60.25C60.59 60.52 60.56 60.7 60.56 60.79C60.56 60.97 60.62 61.1 60.75 61.14C60.87 61.2 61.13 61.22 61.5 61.22H62.35L61.99 62.91L61.98 62.92Z" fill="#F6D509"/>
<path d="M21.18 56.11C20.89 55.96 20.37 55.89 19.62 55.89H16.76C15.94 55.89 15.31 56.04 14.88 56.35C14.45 56.66 14.16 57.17 14.01 57.88L13.38 60.92C13.33 61.1 13.3 61.27 13.28 61.41C13.26 61.56 13.25 61.69 13.25 61.81C13.25 62.03 13.28 62.2 13.35 62.34C13.41 62.48 13.52 62.58 13.67 62.67C13.82 62.76 14.03 62.82 14.29 62.85C14.55 62.89 14.87 62.9 15.27 62.9H20.12L20.48 61.23H16.39C16.01 61.23 15.76 61.2 15.64 61.14C15.52 61.08 15.45 60.96 15.45 60.78C15.45 60.65 15.48 60.48 15.52 60.26H16.36H21L21.5 57.89C21.57 57.54 21.61 57.25 21.61 57C21.61 56.56 21.47 56.28 21.17 56.12M19.42 58.57H15.87C15.91 58.35 15.96 58.18 16.02 58.05C16.08 57.92 16.16 57.82 16.25 57.75C16.34 57.68 16.46 57.63 16.6 57.61C16.75 57.59 16.93 57.58 17.14 57.58H18.73C19.25 57.58 19.51 57.74 19.51 58.07C19.51 58.1 19.48 58.27 19.41 58.58" fill="#F6D509"/>
<path d="M42.6201 56.45C42.5501 56.31 42.4301 56.2 42.2801 56.12C42.1301 56.04 41.9201 55.98 41.6601 55.95C41.4101 55.92 41.0901 55.9 40.7101 55.9H35.8701L35.5101 57.59H39.6001C39.9801 57.59 40.2301 57.62 40.3501 57.67C40.4701 57.73 40.5301 57.84 40.5301 58.03C40.5301 58.12 40.5101 58.29 40.4501 58.57H37.2901C36.8301 58.57 36.4401 58.6 36.1301 58.64C35.8201 58.69 35.5601 58.78 35.3501 58.93C35.1501 59.07 34.9801 59.27 34.8701 59.53C34.7501 59.79 34.6401 60.13 34.5401 60.55L34.4601 60.94C34.3901 61.28 34.3401 61.57 34.3401 61.82C34.3401 62.05 34.3801 62.24 34.4501 62.37C34.5201 62.51 34.6301 62.62 34.7901 62.71C34.9501 62.79 35.1501 62.85 35.4001 62.87C35.6601 62.9 35.9701 62.92 36.3501 62.92H41.5101L42.5801 57.89C42.6501 57.55 42.6901 57.26 42.6901 57.01C42.6901 56.78 42.6601 56.6 42.5901 56.45M36.8701 61.22C36.5801 61.22 36.4301 61.1 36.4301 60.85C36.4301 60.7 36.4901 60.56 36.6101 60.44C36.7301 60.32 36.8901 60.25 37.0801 60.25H39.2401H40.0801L39.8701 61.23H36.8701V61.22Z" fill="#F6D509"/>
<path d="M57.6501 56.11C57.3601 55.96 56.8401 55.89 56.0901 55.89H53.2301C52.4101 55.89 51.7801 56.04 51.3601 56.35C50.9301 56.66 50.6401 57.17 50.4901 57.88L49.8501 60.92C49.8101 61.1 49.7701 61.27 49.7501 61.41C49.7301 61.56 49.7201 61.69 49.7201 61.81C49.7201 62.03 49.7501 62.2 49.8201 62.34C49.8801 62.48 49.9901 62.58 50.1401 62.67C50.2901 62.76 50.5001 62.82 50.7601 62.85C51.0201 62.89 51.3401 62.9 51.7301 62.9H56.5801L56.9301 61.23H52.8401C52.4601 61.23 52.2101 61.2 52.0801 61.14C51.9601 61.08 51.8901 60.96 51.8901 60.78C51.8901 60.65 51.9101 60.48 51.9501 60.26H52.7901H57.4301L57.9401 57.89C58.0201 57.54 58.0501 57.25 58.0501 57C58.0501 56.56 57.9001 56.28 57.6101 56.12M55.8601 58.57H52.3101C52.3501 58.35 52.4001 58.18 52.4601 58.05C52.5201 57.92 52.6001 57.82 52.6901 57.75C52.7901 57.68 52.9001 57.63 53.0501 57.61C53.2001 57.59 53.3801 57.58 53.6001 57.58H55.1901C55.7101 57.58 55.9701 57.74 55.9701 58.07C55.9701 58.1 55.9401 58.27 55.8701 58.58" fill="#F6D509"/>
</svg>
