<svg width="95" height="31" viewBox="0 0 95 31" fill="none" xmlns="http://www.w3.org/2000/svg">
<mask id="mask0_94_334" style="mask-type:alpha" maskUnits="userSpaceOnUse" x="0" y="0" width="95" height="31">
<path d="M49.06 9.79999C49.01 14.07 52.86 16.45 55.77 17.86C58.75 19.31 59.76 20.24 59.75 21.54C59.73 23.53 57.37 24.4 55.16 24.44C51.31 24.5 49.07 23.4 47.29 22.57L45.9 29.06C47.69 29.88 50.99 30.6 54.42 30.63C62.47 30.63 67.73 26.66 67.76 20.5C67.79 12.68 56.95 12.25 57.02 8.75999C57.05 7.69999 58.06 6.57 60.27 6.28C61.37 6.13 64.39 6.01999 67.83 7.59999L69.18 1.31999C67.33 0.649992 64.96 0 62.01 0C54.43 0 49.11 4.02999 49.06 9.78999M82.12 0.539993C80.65 0.539993 79.41 1.39999 78.86 2.70999L67.36 30.16H75.4L77 25.74H86.83L87.76 30.16H94.85L88.66 0.539993H82.12ZM83.24 8.53999L85.56 19.66H79.2L83.24 8.53999ZM39.3 0.539993L32.96 30.16H40.62L46.96 0.539993H39.3ZM27.96 0.539993L19.98 20.7L16.75 3.56C16.37 1.65 14.88 0.539993 13.22 0.539993H0.179993L0 1.39999C2.68 1.97999 5.72 2.92 7.56 3.92C8.69 4.53 9.01 5.06999 9.38 6.51999L15.49 30.16H23.59L36.01 0.539993H27.96Z" fill="black"/>
</mask>
<g mask="url(#mask0_94_334)">
<path d="M-9.92004 3.66L83.52 -30.75L104.78 26.97L11.34 61.38" fill="url(#paint0_linear_94_334)"/>
</g>
<defs>
<linearGradient id="paint0_linear_94_334" x1="6.3939" y1="30.9932" x2="86.138" y2="1.62142" gradientUnits="userSpaceOnUse">
<stop stop-color="#212356"/>
<stop offset="1" stop-color="#284DA0"/>
</linearGradient>
</defs>
</svg>
