<svg width="158" height="42" viewBox="0 0 158 42" fill="none" xmlns="http://www.w3.org/2000/svg">
<path d="M17.11 26.29C16.9 26.4 16.66 26.46 16.4 26.46C15.81 26.46 15.3 26.14 15.03 25.66L14.93 25.43L10.64 16.02C10.59 15.92 10.57 15.8 10.57 15.69C10.57 15.26 10.92 14.9 11.36 14.9C11.54 14.9 11.7 14.96 11.83 15.06L16.89 18.66C17.26 18.9 17.7 19.04 18.18 19.04C18.46 19.04 18.73 18.99 18.99 18.9L42.79 8.31C38.52 3.28 31.5 0 23.55 0C10.54 0 0 8.79 0 19.63C0 25.54 3.17001 30.87 8.14001 34.47C8.54001 34.75 8.79999 35.22 8.79999 35.75C8.79999 35.92 8.76003 36.08 8.72003 36.25C8.32003 37.73 7.69003 40.1 7.66003 40.21C7.61003 40.4 7.53003 40.59 7.53003 40.78C7.53003 41.21 7.88001 41.57 8.32001 41.57C8.49001 41.57 8.63002 41.51 8.77002 41.42L13.93 38.44C14.32 38.22 14.73 38.08 15.18 38.08C15.42 38.08 15.65 38.12 15.87 38.18C18.28 38.87 20.87 39.26 23.56 39.26C36.57 39.26 47.12 30.47 47.12 19.63C47.12 16.35 46.15 13.25 44.44 10.53L17.32 26.19L17.15 26.29H17.11Z" fill="#37B34A"/>
<path d="M70.54 22.51L70.23 23.62C69.97 24.55 69.74 25.36 69.54 26.17C69.29 24.98 68.9301 23.65 68.6201 22.47L66.5201 14.55L66.48 14.41H65.1001L62.7501 22.52C62.3301 23.89 61.9601 25.13 61.7001 26.21C61.5001 25.35 61.2601 24.4 61.0001 23.4L58.7201 14.55L58.6801 14.41H57.0901L60.9001 28.85L60.9401 28.99H62.29L64.7401 20.71C65.1701 19.3 65.4901 18.19 65.7201 17.22C65.9301 18.24 66.2201 19.37 66.5801 20.7L68.7001 28.84L68.7401 28.98H70.11L74.4101 14.64L74.48 14.4H72.8801L70.5101 22.49L70.54 22.51Z" fill="#37B34A"/>
<path d="M79.51 18.2301C76.66 18.2301 74.74 20.5201 74.74 23.9201C74.74 27.0901 76.73 29.2101 79.68 29.2101C81.54 29.2101 82.59 28.7301 82.96 28.5301L83.19 28.4001L82.52 27.2401L82.36 27.3101C81.84 27.5501 81.13 27.8001 79.81 27.8001C77.65 27.8001 76.36 26.3801 76.28 23.8901H83.6L83.65 23.6701C83.7 23.4501 83.7 23.2901 83.7 23.0101C83.7 22.6201 83.65 21.2601 82.94 20.0701C82.21 18.8401 81.06 18.2101 79.53 18.2101M76.37 22.5401C76.76 20.3701 78.18 19.5901 79.4 19.5901C80.18 19.5901 80.8 19.8201 81.25 20.2901C81.92 20.9701 82.07 21.9601 82.1 22.5401H76.37Z" fill="#37B34A"/>
<path d="M95.46 27.2301C94.67 27.5901 93.56 27.8101 92.5 27.8101C88.96 27.8101 86.84 25.5701 86.84 21.8201C86.84 18.0701 89.02 15.6001 92.67 15.6001C93.68 15.6001 94.64 15.7901 95.37 16.1401L95.53 16.2101L96.24 14.9701L96.03 14.8501C95.75 14.7001 94.67 14.1901 92.65 14.1901C88.23 14.1901 85.25 17.2501 85.25 21.8001C85.25 27.2701 88.98 29.2201 92.17 29.2201C93.97 29.2201 95.37 28.8401 96.08 28.4801L96.31 28.3601L95.62 27.1601L95.46 27.2301Z" fill="#37B34A"/>
<path d="M102.66 18.2301C101.88 18.2301 101.13 18.4401 100.5 18.8501C100.14 19.0601 99.8001 19.3401 99.5101 19.6901V14.1901H97.9601V29.0001H99.5101V22.6201C99.5101 22.2401 99.5301 21.9901 99.6201 21.7101C100.05 20.4901 101.19 19.6401 102.38 19.6401C104.53 19.6401 104.85 21.6201 104.85 22.8001V28.9901H106.4V22.7001C106.4 18.4301 103.27 18.2201 102.65 18.2201" fill="#37B34A"/>
<path d="M120.24 16.22H118.69V18.56H117V19.82H118.69V25.86C118.69 27.06 118.92 27.9 119.37 28.42C119.79 28.95 120.45 29.23 121.29 29.23C121.88 29.23 122.38 29.14 122.8 28.96L123.05 28.85L122.4 27.72L122.27 27.75C122.04 27.8 121.75 27.83 121.43 27.83C120.6 27.83 120.25 27.3 120.25 26.04V19.82H123.1V18.56H120.25V16.22H120.24Z" fill="#37B34A"/>
<path d="M133.21 14.3201C132.18 14.3201 131.15 14.4101 130.14 14.5901L129.91 14.6301V29.0001H131.46V23.0701C131.88 23.1501 132.34 23.1601 132.89 23.1601C134.75 23.1601 136.28 22.5701 137.22 21.5101C137.93 20.7401 138.27 19.7601 138.27 18.5101C138.27 17.2601 137.87 16.2801 137.1 15.5701C136.25 14.7401 134.91 14.3101 133.2 14.3101M131.45 15.8101C131.75 15.7601 132.32 15.6901 133.15 15.6901C135.41 15.6901 136.71 16.7601 136.71 18.6201C136.71 20.6301 135.34 21.7801 132.96 21.7801C132.5 21.7801 131.92 21.7601 131.44 21.6401V15.8001L131.45 15.8101Z" fill="#37B34A"/>
<path d="M155.32 18.4601L152.82 25.1101C152.62 25.6301 152.44 26.1501 152.29 26.6001C152.13 26.1201 151.96 25.6201 151.79 25.1701L149.17 18.6301L149.1 18.4601H147.45L151.31 28.1001C151.41 28.3601 151.42 28.4301 151.42 28.4301C151.42 28.5001 151.37 28.6401 151.32 28.7601C150.82 29.9401 150.17 30.7301 149.72 31.1901C149.09 31.7901 148.42 32.1001 148.07 32.2301L147.79 32.3301L148.96 33.5401C149.22 33.4401 149.63 33.1401 150.41 32.4801C151.74 31.3201 152.58 29.5501 153.86 26.2701L156.91 18.7001L157.02 18.4401H155.36L155.32 18.4601Z" fill="#37B34A"/>
<path d="M115.79 26.36V22.45C115.79 19.69 114.5 18.24 112.06 18.24C110.98 18.24 109.83 18.58 108.97 19.14L108.81 19.24L109.48 20.4L109.65 20.29C110.28 19.86 111.09 19.63 111.95 19.63H111.99C112.68 19.63 113.21 19.82 113.58 20.18C114.02 20.62 114.24 21.31 114.24 22.29C111.85 22.29 110.12 22.81 109.11 23.82C108.47 24.46 108.14 25.27 108.14 26.24C108.14 27.7 109.14 29.26 111.35 29.26C112.89 29.26 113.87 28.52 114.39 27.97L114.5 29.03H115.99L115.94 28.71C115.82 27.94 115.8 27.13 115.8 26.38M110.3 24.65C110.97 24 112.24 23.67 114.06 23.67H114.25V25.55C114.25 25.68 114.23 25.88 114.16 26.06C113.86 26.94 113 27.87 111.46 27.87C110.66 27.87 109.73 27.4 109.73 26.06C109.73 25.48 109.92 25.01 110.29 24.65" fill="#37B34A"/>
<path d="M146.29 26.36V22.45C146.29 19.69 145 18.24 142.56 18.24C141.54 18.24 140.43 18.55 139.59 19.06L139.43 19.16L140.09 20.31L140.26 20.21C140.87 19.83 141.65 19.62 142.45 19.62H142.49C143.18 19.62 143.71 19.81 144.08 20.17C144.52 20.61 144.74 21.3 144.74 22.28C142.35 22.28 140.62 22.8 139.61 23.81C138.97 24.45 138.64 25.26 138.64 26.23C138.64 27.69 139.64 29.25 141.85 29.25C143.39 29.25 144.37 28.51 144.89 27.96L145 29.02H146.49L146.44 28.7C146.31 27.93 146.3 27.12 146.3 26.37M144.75 25.54C144.75 25.67 144.73 25.87 144.66 26.06C144.36 26.94 143.49 27.87 141.96 27.87C141.16 27.87 140.23 27.4 140.23 26.06C140.23 25.48 140.42 25.01 140.79 24.65C141.46 24 142.73 23.67 144.55 23.67H144.74V25.55L144.75 25.54Z" fill="#37B34A"/>
</svg>
